EBGaramondVF-Caption_UltraLight.ufo
<glyph name="numbersign" format="1">
  <advance width="488"/>
  <unicode hex="0023"/>
  <outline>
    <contour>
      <point x="63" y="-79" type="curve" smooth="yes"/>
      <point x="76" y="-79"/>
      <point x="96" y="-77"/>
      <point x="99" y="-64" type="curve" smooth="yes"/>
      <point x="145" y="121" type="line"/>
      <point x="259" y="127" type="line"/>
      <point x="214" y="-53" type="line"/>
      <point x="214" y="-56" type="line" smooth="yes"/>
      <point x="214" y="-62"/>
      <point x="218" y="-68"/>
      <point x="224" y="-68" type="curve" smooth="yes"/>
      <point x="237" y="-68"/>
      <point x="258" y="-66"/>
      <point x="261" y="-53" type="curve" smooth="yes"/>
      <point x="305" y="129" type="line"/>
      <point x="368" y="132" type="line" smooth="yes"/>
      <point x="387" y="133"/>
      <point x="394" y="162"/>
      <point x="394" y="171" type="curve" smooth="yes"/>
      <point x="394" y="177"/>
      <point x="388" y="181"/>
      <point x="381" y="181" type="curve"/>
      <point x="318" y="178" type="line"/>
      <point x="354" y="326" type="line"/>
      <point x="414" y="329" type="line" smooth="yes"/>
      <point x="433" y="330"/>
      <point x="441" y="360"/>
      <point x="441" y="369" type="curve" smooth="yes"/>
      <point x="441" y="375"/>
      <point x="436" y="379"/>
      <point x="428" y="379" type="curve"/>
      <point x="367" y="376" type="line"/>
      <point x="410" y="553" type="line"/>
      <point x="410" y="555"/>
      <point x="411" y="556"/>
      <point x="411" y="558" type="curve" smooth="yes"/>
      <point x="411" y="564"/>
      <point x="408" y="570"/>
      <point x="403" y="570" type="curve" smooth="yes"/>
      <point x="389" y="570"/>
      <point x="366" y="567"/>
      <point x="363" y="553" type="curve" smooth="yes"/>
      <point x="319" y="373" type="line"/>
      <point x="206" y="368" type="line"/>
      <point x="248" y="542" type="line"/>
      <point x="248" y="544"/>
      <point x="249" y="545"/>
      <point x="249" y="548" type="curve" smooth="yes"/>
      <point x="249" y="553"/>
      <point x="246" y="559"/>
      <point x="240" y="559" type="curve" smooth="yes"/>
      <point x="226" y="559"/>
      <point x="205" y="556"/>
      <point x="202" y="541" type="curve" smooth="yes"/>
      <point x="159" y="366" type="line"/>
      <point x="86" y="363" type="line" smooth="yes"/>
      <point x="69" y="362"/>
      <point x="65" y="333"/>
      <point x="65" y="324" type="curve" smooth="yes"/>
      <point x="65" y="317"/>
      <point x="72" y="313"/>
      <point x="79" y="313" type="curve"/>
      <point x="147" y="316" type="line"/>
      <point x="110" y="168" type="line"/>
      <point x="40" y="165" type="line" smooth="yes"/>
      <point x="22" y="165"/>
      <point x="18" y="135"/>
      <point x="18" y="127" type="curve" smooth="yes"/>
      <point x="18" y="120"/>
      <point x="25" y="116"/>
      <point x="32" y="116" type="curve"/>
      <point x="98" y="119" type="line"/>
      <point x="53" y="-64" type="line"/>
      <point x="53" y="-67" type="line" smooth="yes"/>
      <point x="53" y="-73"/>
      <point x="57" y="-79"/>
    </contour>
    <contour>
      <point x="158" y="170" type="line"/>
      <point x="194" y="318" type="line"/>
      <point x="307" y="324" type="line"/>
      <point x="271" y="176" type="line"/>
    </contour>
  </outline>
</glyph>
<glyph name="quotesingle" format="1">
  <advance width="188"/>
  <unicode hex="0027"/>
  <outline>
    <contour>
      <point x="68" y="553" type="curve" smooth="yes"/>
      <point x="71" y="550"/>
      <point x="79" y="555"/>
      <point x="86" y="563" type="curve" smooth="yes"/>
      <point x="97" y="588"/>
      <point x="120" y="651"/>
      <point x="121" y="692" type="curve" smooth="yes"/>
      <point x="123" y="715"/>
      <point x="124" y="752"/>
      <point x="119" y="768" type="curve" smooth="yes"/>
      <point x="110" y="773"/>
      <point x="103" y="773"/>
      <point x="92" y="764" type="curve"/>
      <point x="82" y="759"/>
      <point x="73" y="747"/>
      <point x="68" y="733" type="curve" smooth="yes"/>
      <point x="65" y="730"/>
      <point x="64" y="686"/>
      <point x="64" y="657" type="curve" smooth="yes"/>
      <point x="64" y="644"/>
      <point x="65" y="613"/>
      <point x="65" y="587" type="curve"/>
      <point x="65" y="575"/>
      <point x="66" y="560"/>
    </contour>
  </outline>
</glyph>
<glyph name="plus" format="1">
  <advance width="590"/>
  <unicode hex="002B"/>
  <outline>
    <contour>
      <point x="276" y="23" type="curve" smooth="yes"/>
      <point x="286" y="23"/>
      <point x="328" y="26"/>
      <point x="328" y="47" type="curve" smooth="yes"/>
      <point x="328" y="241" type="line" smooth="yes"/>
      <point x="328" y="245"/>
      <point x="329" y="246"/>
      <point x="332" y="246" type="curve" smooth="yes"/>
      <point x="514" y="246" type="line" smooth="yes"/>
      <point x="533" y="246"/>
      <point x="545" y="272"/>
      <point x="545" y="291" type="curve" smooth="yes"/>
      <point x="545" y="298"/>
      <point x="539" y="303"/>
      <point x="532" y="303" type="curve" smooth="yes"/>
      <point x="330" y="303" type="line" smooth="yes"/>
      <point x="328" y="303"/>
      <point x="328" y="304"/>
      <point x="328" y="310" type="curve" smooth="yes"/>
      <point x="328" y="500" type="line" smooth="yes"/>
      <point x="328" y="507"/>
      <point x="320" y="513"/>
      <point x="312" y="513" type="curve" smooth="yes"/>
      <point x="305" y="513"/>
      <point x="262" y="504"/>
      <point x="262" y="482" type="curve" smooth="yes"/>
      <point x="262" y="312" type="line" smooth="yes"/>
      <point x="262" y="305"/>
      <point x="261" y="303"/>
      <point x="255" y="303" type="curve" smooth="yes"/>
      <point x="69" y="303" type="line" smooth="yes"/>
      <point x="51" y="303"/>
      <point x="45" y="271"/>
      <point x="45" y="260" type="curve" smooth="yes"/>
      <point x="45" y="253"/>
      <point x="52" y="246"/>
      <point x="59" y="246" type="curve" smooth="yes"/>
      <point x="258" y="246" type="line" smooth="yes"/>
      <point x="261" y="246"/>
      <point x="262" y="244"/>
      <point x="262" y="240" type="curve" smooth="yes"/>
      <point x="262" y="37" type="line" smooth="yes"/>
      <point x="262" y="30"/>
      <point x="269" y="23"/>
    </contour>
  </outline>
</glyph>
<glyph name="comma" format="1">
  <advance width="218"/>
  <unicode hex="002C"/>
  <outline>
    <contour>
      <point x="37" y="-147" type="curve" smooth="yes"/>
      <point x="88" y="-147"/>
      <point x="177" y="-86"/>
      <point x="177" y="15" type="curve" smooth="yes"/>
      <point x="177" y="73"/>
      <point x="140" y="115"/>
      <point x="92" y="115" type="curve" smooth="yes"/>
      <point x="67" y="115"/>
      <point x="44" y="98"/>
      <point x="44" y="74" type="curve" smooth="yes"/>
      <point x="44" y="53"/>
      <point x="60" y="38"/>
      <point x="87" y="35" type="curve" smooth="yes"/>
      <point x="113" y="33"/>
      <point x="134" y="7"/>
      <point x="134" y="-15" type="curve" smooth="yes"/>
      <point x="134" y="-85"/>
      <point x="81" y="-118"/>
      <point x="33" y="-125" type="curve" smooth="yes"/>
      <point x="24" y="-126"/>
      <point x="19" y="-131"/>
      <point x="19" y="-136" type="curve" smooth="yes"/>
      <point x="19" y="-142"/>
      <point x="25" y="-147"/>
    </contour>
  </outline>
</glyph>
<glyph name="hyphen" format="1">
  <advance width="286"/>
  <unicode hex="002D"/>
  <outline>
    <contour>
      <point x="37" y="146" type="curve"/>
      <point x="107" y="152"/>
      <point x="171" y="163"/>
      <point x="234" y="171" type="curve" smooth="yes"/>
      <point x="250" y="173"/>
      <point x="256" y="204"/>
      <point x="256" y="229" type="curve" smooth="yes"/>
      <point x="256" y="233"/>
      <point x="251" y="235"/>
      <point x="247" y="235" type="curve"/>
      <point x="180" y="228"/>
      <point x="114" y="219"/>
      <point x="47" y="210" type="curve"/>
      <point x="37" y="209"/>
      <point x="30" y="174"/>
      <point x="30" y="152" type="curve" smooth="yes"/>
      <point x="30" y="148"/>
      <point x="31" y="146"/>
    </contour>
  </outline>
</glyph>
<glyph name="three" format="1">
  <advance width="471"/>
  <unicode hex="0033"/>
  <outline>
    <contour>
      <point x="154" y="-38" type="curve" smooth="yes"/>
      <point x="290" y="-38"/>
      <point x="433" y="55"/>
      <point x="433" y="214" type="curve" smooth="yes"/>
      <point x="433" y="308"/>
      <point x="365" y="380"/>
      <point x="286" y="381" type="curve" smooth="yes"/>
      <point x="281" y="381"/>
      <point x="281" y="385"/>
      <point x="285" y="387" type="curve"/>
      <point x="359" y="435"/>
      <point x="384" y="498"/>
      <point x="384" y="551" type="curve" smooth="yes"/>
      <point x="384" y="626"/>
      <point x="320" y="678"/>
      <point x="250" y="678" type="curve" smooth="yes"/>
      <point x="115" y="678"/>
      <point x="61" y="581"/>
      <point x="61" y="547" type="curve" smooth="yes"/>
      <point x="61" y="536"/>
      <point x="71" y="518"/>
      <point x="86" y="518" type="curve" smooth="yes"/>
      <point x="100" y="518"/>
      <point x="122" y="614"/>
      <point x="221" y="614" type="curve" smooth="yes"/>
      <point x="278" y="614"/>
      <point x="318" y="573"/>
      <point x="318" y="511" type="curve" smooth="yes"/>
      <point x="318" y="433"/>
      <point x="232" y="378"/>
      <point x="186" y="360" type="curve" smooth="yes"/>
      <point x="170" y="354"/>
      <point x="156" y="341"/>
      <point x="152" y="320" type="curve" smooth="yes"/>
      <point x="151" y="309"/>
      <point x="163" y="301"/>
      <point x="171" y="306" type="curve" smooth="yes"/>
      <point x="196" y="319"/>
      <point x="224" y="321"/>
      <point x="240" y="321" type="curve" smooth="yes"/>
      <point x="322" y="321"/>
      <point x="363" y="240"/>
      <point x="363" y="161" type="curve" smooth="yes"/>
      <point x="363" y="77"/>
      <point x="286" y="10"/>
      <point x="208" y="10" type="curve" smooth="yes"/>
      <point x="169" y="10"/>
      <point x="146" y="26"/>
      <point x="128" y="41" type="curve" smooth="yes"/>
      <point x="115" y="51"/>
      <point x="103" y="60"/>
      <point x="88" y="60" type="curve" smooth="yes"/>
      <point x="71" y="60"/>
      <point x="42" y="28"/>
      <point x="42" y="12" type="curve" smooth="yes"/>
      <point x="42" y="-14"/>
      <point x="107" y="-38"/>
    </contour>
  </outline>
</glyph>
<glyph name="five" format="1">
  <advance width="471"/>
  <unicode hex="0035"/>
  <outline>
    <contour>
      <point x="104" y="-38" type="curve" smooth="yes"/>
      <point x="181" y="-38"/>
      <point x="250" y="-17"/>
      <point x="304" y="17" type="curve" smooth="yes"/>
      <point x="376" y="63"/>
      <point x="421" y="133"/>
      <point x="421" y="209" type="curve" smooth="yes"/>
      <point x="421" y="292"/>
      <point x="383" y="343"/>
      <point x="308" y="383" type="curve" smooth="yes"/>
      <point x="261" y="409"/>
      <point x="196" y="431"/>
      <point x="134" y="450" type="curve" smooth="yes"/>
      <point x="123" y="453"/>
      <point x="120" y="460"/>
      <point x="121" y="470" type="curve"/>
      <point x="123" y="490"/>
      <point x="150" y="565"/>
      <point x="165" y="574" type="curve" smooth="yes"/>
      <point x="190" y="581"/>
      <point x="285" y="587"/>
      <point x="336" y="593" type="curve" smooth="yes"/>
      <point x="352" y="595"/>
      <point x="364" y="605"/>
      <point x="373" y="625" type="curve" smooth="yes"/>
      <point x="379" y="635"/>
      <point x="385" y="647"/>
      <point x="391" y="658" type="curve" smooth="yes"/>
      <point x="396" y="667"/>
      <point x="390" y="676"/>
      <point x="380" y="675" type="curve" smooth="yes"/>
      <point x="298" y="667"/>
      <point x="227" y="654"/>
      <point x="164" y="637" type="curve" smooth="yes"/>
      <point x="142" y="632"/>
      <point x="128" y="620"/>
      <point x="121" y="599" type="curve" smooth="yes"/>
      <point x="106" y="552"/>
      <point x="72" y="475"/>
      <point x="72" y="436" type="curve" smooth="yes"/>
      <point x="72" y="419"/>
      <point x="77" y="403"/>
      <point x="96" y="392" type="curve"/>
      <point x="284" y="341"/>
      <point x="356" y="296"/>
      <point x="356" y="208" type="curve" smooth="yes"/>
      <point x="356" y="100"/>
      <point x="279" y="9"/>
      <point x="103" y="6" type="curve" smooth="yes"/>
      <point x="85" y="6"/>
      <point x="65" y="-7"/>
      <point x="65" y="-19" type="curve" smooth="yes"/>
      <point x="65" y="-32"/>
      <point x="86" y="-38"/>
    </contour>
  </outline>
</glyph>
<glyph name="eight" format="1">
  <advance width="471"/>
  <unicode hex="0038"/>
  <outline>
    <contour>
      <point x="226" y="-14" type="curve" smooth="yes"/>
      <point x="321" y="-14"/>
      <point x="416" y="64"/>
      <point x="416" y="177" type="curve" smooth="yes"/>
      <point x="416" y="260"/>
      <point x="368" y="310"/>
      <point x="301" y="357" type="curve" smooth="yes"/>
      <point x="291" y="364"/>
      <point x="290" y="367"/>
      <point x="306" y="379" type="curve" smooth="yes"/>
      <point x="328" y="396"/>
      <point x="339" y="408"/>
      <point x="351" y="419" type="curve" smooth="yes"/>
      <point x="375" y="442"/>
      <point x="398" y="477"/>
      <point x="398" y="533" type="curve" smooth="yes"/>
      <point x="398" y="621"/>
      <point x="322" y="677"/>
      <point x="245" y="677" type="curve" smooth="yes"/>
      <point x="159" y="677"/>
      <point x="70" y="612"/>
      <point x="70" y="522" type="curve" smooth="yes"/>
      <point x="70" y="435"/>
      <point x="114" y="399"/>
      <point x="175" y="344" type="curve" smooth="yes"/>
      <point x="183" y="337"/>
      <point x="186" y="336"/>
      <point x="178" y="330" type="curve" smooth="yes"/>
      <point x="131" y="300"/>
      <point x="55" y="250"/>
      <point x="55" y="152" type="curve" smooth="yes"/>
      <point x="55" y="54"/>
      <point x="137" y="-14"/>
    </contour>
    <contour>
      <point x="240" y="30" type="curve" smooth="yes"/>
      <point x="164" y="30"/>
      <point x="120" y="104"/>
      <point x="120" y="173" type="curve" smooth="yes"/>
      <point x="120" y="235"/>
      <point x="149" y="267"/>
      <point x="199" y="304" type="curve" smooth="yes"/>
      <point x="205" y="307"/>
      <point x="209" y="310"/>
      <point x="212" y="310" type="curve" smooth="yes"/>
      <point x="219" y="310"/>
      <point x="225" y="306"/>
      <point x="234" y="299" type="curve"/>
      <point x="289" y="263"/>
      <point x="351" y="205"/>
      <point x="351" y="142" type="curve" smooth="yes"/>
      <point x="351" y="81"/>
      <point x="303" y="30"/>
    </contour>
    <contour>
      <point x="264" y="390" type="curve"/>
      <point x="260" y="388"/>
      <point x="254" y="391"/>
      <point x="249" y="394" type="curve"/>
      <point x="177" y="447"/>
      <point x="134" y="470"/>
      <point x="133" y="540" type="curve" smooth="yes"/>
      <point x="133" y="593"/>
      <point x="183" y="635"/>
      <point x="241" y="635" type="curve" smooth="yes"/>
      <point x="303" y="635"/>
      <point x="334" y="590"/>
      <point x="334" y="535" type="curve" smooth="yes"/>
      <point x="334" y="477"/>
      <point x="317" y="427"/>
    </contour>
  </outline>
</glyph>
<glyph name="less" format="1">
  <advance width="560"/>
  <unicode hex="003C"/>
  <outline>
    <contour>
      <point x="484" y="34" type="line" smooth="yes"/>
      <point x="492" y="30"/>
      <point x="507" y="29"/>
      <point x="507" y="44" type="curve" smooth="yes"/>
      <point x="507" y="54"/>
      <point x="502" y="88"/>
      <point x="480" y="99" type="curve" smooth="yes"/>
      <point x="145" y="267" type="line"/>
      <point x="141" y="268"/>
      <point x="140" y="271"/>
      <point x="144" y="273" type="curve"/>
      <point x="471" y="439" type="line" smooth="yes"/>
      <point x="493" y="450"/>
      <point x="506" y="483"/>
      <point x="506" y="497" type="curve" smooth="yes"/>
      <point x="506" y="504"/>
      <point x="503" y="508"/>
      <point x="496" y="508" type="curve" smooth="yes"/>
      <point x="494" y="508"/>
      <point x="490" y="507"/>
      <point x="486" y="505" type="curve" smooth="yes"/>
      <point x="91" y="311" type="line" smooth="yes"/>
      <point x="68" y="300"/>
      <point x="53" y="269"/>
      <point x="53" y="258" type="curve" smooth="yes"/>
      <point x="53" y="251"/>
      <point x="81" y="237"/>
      <point x="100" y="227" type="curve" smooth="yes"/>
    </contour>
  </outline>
</glyph>
<glyph name="equal" format="1">
  <advance width="566"/>
  <unicode hex="003D"/>
  <outline>
    <contour>
      <point x="64" y="339" type="curve" smooth="yes"/>
      <point x="484" y="339" type="line" smooth="yes"/>
      <point x="501" y="339"/>
      <point x="516" y="366"/>
      <point x="516" y="383" type="curve" smooth="yes"/>
      <point x="516" y="390"/>
      <point x="508" y="396"/>
      <point x="502" y="396" type="curve" smooth="yes"/>
      <point x="74" y="396" type="line" smooth="yes"/>
      <point x="56" y="396"/>
      <point x="50" y="364"/>
      <point x="50" y="353" type="curve" smooth="yes"/>
      <point x="50" y="346"/>
      <point x="57" y="339"/>
    </contour>
    <contour>
      <point x="64" y="168" type="curve" smooth="yes"/>
      <point x="484" y="168" type="line" smooth="yes"/>
      <point x="501" y="168"/>
      <point x="516" y="192"/>
      <point x="516" y="212" type="curve" smooth="yes"/>
      <point x="516" y="219"/>
      <point x="508" y="224"/>
      <point x="502" y="224" type="curve" smooth="yes"/>
      <point x="74" y="224" type="line" smooth="yes"/>
      <point x="56" y="224"/>
      <point x="50" y="192"/>
      <point x="50" y="182" type="curve" smooth="yes"/>
      <point x="50" y="175"/>
      <point x="57" y="168"/>
    </contour>
  </outline>
</glyph>
<glyph name="question" format="1">
  <advance width="392"/>
  <unicode hex="003F"/>
  <outline>
    <contour>
      <point x="141" y="181" type="curve" smooth="yes"/>
      <point x="155" y="181"/>
      <point x="162" y="194"/>
      <point x="162" y="205" type="curve" smooth="yes"/>
      <point x="163" y="241"/>
      <point x="165" y="275"/>
      <point x="196" y="293" type="curve" smooth="yes"/>
      <point x="226" y="313"/>
      <point x="239" y="320"/>
      <point x="279" y="342" type="curve" smooth="yes"/>
      <point x="302" y="355"/>
      <point x="321" y="377"/>
      <point x="321" y="423" type="curve" smooth="yes"/>
      <point x="321" y="473"/>
      <point x="286" y="557"/>
      <point x="227" y="612" type="curve" smooth="yes"/>
      <point x="193" y="644"/>
      <point x="149" y="661"/>
      <point x="115" y="661" type="curve" smooth="yes"/>
      <point x="96" y="661"/>
      <point x="73" y="643"/>
      <point x="73" y="624" type="curve" smooth="yes"/>
      <point x="73" y="596"/>
      <point x="94" y="566"/>
      <point x="116" y="566" type="curve" smooth="yes"/>
      <point x="125" y="566"/>
      <point x="133" y="567"/>
      <point x="139" y="568" type="curve" smooth="yes"/>
      <point x="146" y="569"/>
      <point x="153" y="571"/>
      <point x="162" y="571" type="curve" smooth="yes"/>
      <point x="230" y="570"/>
      <point x="267" y="520"/>
      <point x="267" y="450" type="curve" smooth="yes"/>
      <point x="267" y="420"/>
      <point x="235" y="391"/>
      <point x="203" y="376" type="curve" smooth="yes"/>
      <point x="137" y="343"/>
      <point x="102" y="321"/>
      <point x="102" y="288" type="curve" smooth="yes"/>
      <point x="102" y="248"/>
      <point x="108" y="229"/>
      <point x="114" y="209" type="curve" smooth="yes"/>
      <point x="118" y="193"/>
      <point x="132" y="181"/>
    </contour>
    <contour>
      <point x="154" y="-14" type="curve" smooth="yes"/>
      <point x="186" y="-14"/>
      <point x="214" y="13"/>
      <point x="214" y="45" type="curve" smooth="yes"/>
      <point x="214" y="78"/>
      <point x="188" y="106"/>
      <point x="155" y="106" type="curve" smooth="yes"/>
      <point x="122" y="106"/>
      <point x="95" y="80"/>
      <point x="94" y="47" type="curve" smooth="yes"/>
      <point x="94" y="14"/>
      <point x="121" y="-14"/>
    </contour>
  </outline>
</glyph>
<glyph name="at" format="1">
  <advance width="781"/>
  <unicode hex="0040"/>
  <outline>
    <contour>
      <point x="399" y="-135" type="curve" smooth="yes"/>
      <point x="522" y="-135"/>
      <point x="663" y="-51"/>
      <point x="663" y="-20" type="curve" smooth="yes"/>
      <point x="663" y="-7"/>
      <point x="656" y="0"/>
      <point x="643" y="0" type="curve" smooth="yes"/>
      <point x="635" y="0"/>
      <point x="625" y="-8"/>
      <point x="615" y="-15" type="curve" smooth="yes"/>
      <point x="561" y="-54"/>
      <point x="472" y="-85"/>
      <point x="410" y="-85" type="curve" smooth="yes"/>
      <point x="245" y="-85"/>
      <point x="105" y="34"/>
      <point x="105" y="191" type="curve" smooth="yes"/>
      <point x="105" y="355"/>
      <point x="249" y="461"/>
      <point x="411" y="461" type="curve" smooth="yes"/>
      <point x="555" y="461"/>
      <point x="676" y="357"/>
      <point x="676" y="219" type="curve" smooth="yes"/>
      <point x="676" y="137"/>
      <point x="609" y="91"/>
      <point x="538" y="91" type="curve" smooth="yes"/>
      <point x="516" y="91"/>
      <point x="513" y="105"/>
      <point x="513" y="120" type="curve" smooth="yes"/>
      <point x="513" y="129"/>
      <point x="515" y="138"/>
      <point x="516" y="147" type="curve"/>
      <point x="536" y="272" type="line" smooth="yes"/>
      <point x="539" y="288"/>
      <point x="549" y="328"/>
      <point x="558" y="352" type="curve"/>
      <point x="560" y="356"/>
      <point x="543" y="360"/>
      <point x="539" y="360" type="curve" smooth="yes"/>
      <point x="529" y="360"/>
      <point x="525" y="340"/>
      <point x="515" y="340" type="curve" smooth="yes"/>
      <point x="511" y="340"/>
      <point x="506" y="341"/>
      <point x="493" y="346" type="curve" smooth="yes"/>
      <point x="481" y="351"/>
      <point x="451" y="355"/>
      <point x="430" y="355" type="curve" smooth="yes"/>
      <point x="324" y="355"/>
      <point x="226" y="278"/>
      <point x="226" y="156" type="curve" smooth="yes"/>
      <point x="226" y="86"/>
      <point x="279" y="47"/>
      <point x="346" y="47" type="curve" smooth="yes"/>
      <point x="409" y="47"/>
      <point x="450" y="84"/>
      <point x="460" y="84" type="curve" smooth="yes"/>
      <point x="470" y="84"/>
      <point x="474" y="47"/>
      <point x="517" y="45" type="curve" smooth="yes"/>
      <point x="628" y="45"/>
      <point x="734" y="117"/>
      <point x="734" y="236" type="curve" smooth="yes"/>
      <point x="734" y="387"/>
      <point x="590" y="511"/>
      <point x="433" y="511" type="curve" smooth="yes"/>
      <point x="231" y="511"/>
      <point x="48" y="398"/>
      <point x="48" y="181" type="curve" smooth="yes"/>
      <point x="48" y="-6"/>
      <point x="211" y="-135"/>
    </contour>
    <contour>
      <point x="373" y="88" type="curve" smooth="yes"/>
      <point x="333" y="88"/>
      <point x="285" y="109"/>
      <point x="285" y="176" type="curve" smooth="yes"/>
      <point x="285" y="267"/>
      <point x="349" y="315"/>
      <point x="409" y="315" type="curve" smooth="yes"/>
      <point x="456" y="315"/>
      <point x="484" y="296"/>
      <point x="484" y="261" type="curve" smooth="yes"/>
      <point x="484" y="258"/>
      <point x="484" y="253"/>
      <point x="483" y="250" type="curve"/>
      <point x="466" y="155" type="line" smooth="yes"/>
      <point x="461" y="125"/>
      <point x="451" y="116"/>
      <point x="438" y="109" type="curve" smooth="yes"/>
      <point x="416" y="96"/>
      <point x="399" y="88"/>
    </contour>
  </outline>
</glyph>
<glyph name="B" format="1">
  <advance width="575"/>
  <unicode hex="0042"/>
  <outline>
    <contour>
      <point x="48" y="-5" type="curve" smooth="yes"/>
      <point x="102" y="-5"/>
      <point x="122" y="0"/>
      <point x="173" y="0" type="curve" smooth="yes"/>
      <point x="212" y="0"/>
      <point x="248" y="-4"/>
      <point x="266" y="-4" type="curve" smooth="yes"/>
      <point x="339" y="-4"/>
      <point x="391" y="10"/>
      <point x="432" y="33" type="curve" smooth="yes"/>
      <point x="474" y="56"/>
      <point x="533" y="92"/>
      <point x="533" y="209" type="curve" smooth="yes"/>
      <point x="533" y="331"/>
      <point x="442" y="366"/>
      <point x="379" y="385" type="curve" smooth="yes"/>
      <point x="372" y="387"/>
      <point x="373" y="394"/>
      <point x="379" y="396" type="curve" smooth="yes"/>
      <point x="416" y="408"/>
      <point x="438" y="421"/>
      <point x="459" y="444" type="curve" smooth="yes"/>
      <point x="475" y="461"/>
      <point x="493" y="498"/>
      <point x="493" y="544" type="curve" smooth="yes"/>
      <point x="493" y="661"/>
      <point x="419" y="706"/>
      <point x="266" y="706" type="curve" smooth="yes"/>
      <point x="210" y="706"/>
      <point x="195" y="701"/>
      <point x="158" y="701" type="curve" smooth="yes"/>
      <point x="118" y="701"/>
      <point x="110" y="702"/>
      <point x="58" y="702" type="curve" smooth="yes"/>
      <point x="40" y="702"/>
      <point x="29" y="697"/>
      <point x="29" y="687" type="curve" smooth="yes"/>
      <point x="29" y="676"/>
      <point x="38" y="666"/>
      <point x="61" y="664" type="curve" smooth="yes"/>
      <point x="110" y="658"/>
      <point x="127" y="639"/>
      <point x="127" y="585" type="curve" smooth="yes"/>
      <point x="127" y="107" type="line" smooth="yes"/>
      <point x="127" y="58"/>
      <point x="103" y="42"/>
      <point x="52" y="32" type="curve" smooth="yes"/>
      <point x="30" y="27"/>
      <point x="20" y="21"/>
      <point x="20" y="10" type="curve" smooth="yes"/>
      <point x="20" y="0"/>
      <point x="32" y="-5"/>
    </contour>
    <contour>
      <point x="276" y="48" type="curve" smooth="yes"/>
      <point x="221" y="48"/>
      <point x="190" y="63"/>
      <point x="190" y="117" type="curve" smooth="yes"/>
      <point x="190" y="326" type="line" smooth="yes"/>
      <point x="190" y="341"/>
      <point x="205" y="363"/>
      <point x="252" y="363" type="curve" smooth="yes"/>
      <point x="318" y="363"/>
      <point x="360" y="349"/>
      <point x="383" y="337" type="curve" smooth="yes"/>
      <point x="416" y="319"/>
      <point x="457" y="279"/>
      <point x="457" y="205" type="curve" smooth="yes"/>
      <point x="457" y="116"/>
      <point x="376" y="48"/>
    </contour>
    <contour>
      <point x="241" y="404" type="curve" smooth="yes"/>
      <point x="223" y="404"/>
      <point x="190" y="406"/>
      <point x="190" y="441" type="curve" smooth="yes"/>
      <point x="190" y="617" type="line" smooth="yes"/>
      <point x="190" y="648"/>
      <point x="202" y="663"/>
      <point x="263" y="663" type="curve" smooth="yes"/>
      <point x="399" y="663"/>
      <point x="424" y="593"/>
      <point x="424" y="529" type="curve" smooth="yes"/>
      <point x="424" y="471"/>
      <point x="391" y="440"/>
      <point x="372" y="430" type="curve" smooth="yes"/>
      <point x="329" y="410"/>
      <point x="282" y="404"/>
    </contour>
  </outline>
</glyph>
<glyph name="D" format="1">
  <advance width="753"/>
  <unicode hex="0044"/>
  <outline>
    <contour>
      <point x="370" y="-7" type="curve" smooth="yes"/>
      <point x="561" y="-7"/>
      <point x="717" y="162"/>
      <point x="717" y="368" type="curve" smooth="yes"/>
      <point x="717" y="552"/>
      <point x="608" y="709"/>
      <point x="340" y="709" type="curve" smooth="yes"/>
      <point x="313" y="709"/>
      <point x="212" y="701"/>
      <point x="170" y="701" type="curve" smooth="yes"/>
      <point x="122" y="701"/>
      <point x="110" y="703"/>
      <point x="59" y="703" type="curve" smooth="yes"/>
      <point x="42" y="703"/>
      <point x="30" y="698"/>
      <point x="30" y="687" type="curve" smooth="yes"/>
      <point x="30" y="673"/>
      <point x="40" y="669"/>
      <point x="64" y="664" type="curve" smooth="yes"/>
      <point x="115" y="654"/>
      <point x="132" y="637"/>
      <point x="132" y="587" type="curve" smooth="yes"/>
      <point x="132" y="117" type="line" smooth="yes"/>
      <point x="132" y="63"/>
      <point x="115" y="43"/>
      <point x="64" y="33" type="curve" smooth="yes"/>
      <point x="40" y="28"/>
      <point x="30" y="27"/>
      <point x="30" y="12" type="curve" smooth="yes"/>
      <point x="30" y="-1"/>
      <point x="42" y="-5"/>
      <point x="59" y="-5" type="curve" smooth="yes"/>
      <point x="112" y="-5"/>
      <point x="124" y="0"/>
      <point x="164" y="0" type="curve" smooth="yes"/>
      <point x="242" y="0"/>
      <point x="350" y="-7"/>
    </contour>
    <contour>
      <point x="357" y="45" type="curve" smooth="yes"/>
      <point x="272" y="45"/>
      <point x="197" y="54"/>
      <point x="197" y="131" type="curve" smooth="yes"/>
      <point x="197" y="591" type="line" smooth="yes"/>
      <point x="197" y="662"/>
      <point x="246" y="664"/>
      <point x="342" y="664" type="curve" smooth="yes"/>
      <point x="490" y="664"/>
      <point x="639" y="550"/>
      <point x="639" y="351" type="curve" smooth="yes"/>
      <point x="639" y="172"/>
      <point x="523" y="45"/>
    </contour>
  </outline>
</glyph>
<glyph name="J" format="1">
  <advance width="328"/>
  <unicode hex="004A"/>
  <outline>
    <contour>
      <point x="24" y="-200" type="curve" smooth="yes"/>
      <point x="74" y="-200"/>
      <point x="108" y="-178"/>
      <point x="136" y="-144" type="curve" smooth="yes"/>
      <point x="168" y="-103"/>
      <point x="198" y="-35"/>
      <point x="198" y="44" type="curve" smooth="yes"/>
      <point x="198" y="583" type="line" smooth="yes"/>
      <point x="198" y="635"/>
      <point x="213" y="652"/>
      <point x="264" y="662" type="curve" smooth="yes"/>
      <point x="288" y="667"/>
      <point x="298" y="677"/>
      <point x="298" y="689" type="curve" smooth="yes"/>
      <point x="298" y="699"/>
      <point x="286" y="703"/>
      <point x="269" y="703" type="curve" smooth="yes"/>
      <point x="217" y="703"/>
      <point x="210" y="699"/>
      <point x="171" y="699" type="curve" smooth="yes"/>
      <point x="128" y="699"/>
      <point x="111" y="703"/>
      <point x="60" y="703" type="curve" smooth="yes"/>
      <point x="43" y="703"/>
      <point x="31" y="699"/>
      <point x="31" y="689" type="curve" smooth="yes"/>
      <point x="31" y="677"/>
      <point x="41" y="667"/>
      <point x="65" y="662" type="curve" smooth="yes"/>
      <point x="115" y="652"/>
      <point x="133" y="635"/>
      <point x="133" y="583" type="curve" smooth="yes"/>
      <point x="133" y="2" type="line" smooth="yes"/>
      <point x="133" y="-91"/>
      <point x="110" y="-150"/>
      <point x="60" y="-150" type="curve" smooth="yes"/>
      <point x="40" y="-150"/>
      <point x="27" y="-142"/>
      <point x="11" y="-125" type="curve" smooth="yes"/>
      <point x="-2" y="-111"/>
      <point x="-17" y="-104"/>
      <point x="-35" y="-104" type="curve" smooth="yes"/>
      <point x="-54" y="-104"/>
      <point x="-77" y="-128"/>
      <point x="-77" y="-151" type="curve" smooth="yes"/>
      <point x="-77" y="-182"/>
      <point x="-44" y="-200"/>
    </contour>
  </outline>
</glyph>
<glyph name="M" format="1">
  <advance width="922"/>
  <unicode hex="004D"/>
  <outline>
    <contour>
      <point x="50" y="-5" type="curve" smooth="yes"/>
      <point x="106" y="-5"/>
      <point x="107" y="0"/>
      <point x="144" y="0" type="curve" smooth="yes"/>
      <point x="181" y="0"/>
      <point x="184" y="-5"/>
      <point x="239" y="-5" type="curve" smooth="yes"/>
      <point x="256" y="-5"/>
      <point x="269" y="-1"/>
      <point x="269" y="10" type="curve" smooth="yes"/>
      <point x="269" y="22"/>
      <point x="258" y="29"/>
      <point x="235" y="34" type="curve" smooth="yes"/>
      <point x="194" y="43"/>
      <point x="173" y="79"/>
      <point x="173" y="122" type="curve" smooth="yes"/>
      <point x="173" y="253"/>
      <point x="187" y="372"/>
      <point x="208" y="524" type="curve" smooth="yes"/>
      <point x="209" y="531"/>
      <point x="218" y="531"/>
      <point x="221" y="524" type="curve" smooth="yes"/>
      <point x="300" y="324"/>
      <point x="354" y="175"/>
      <point x="411" y="-4" type="curve" smooth="yes"/>
      <point x="414" y="-13"/>
      <point x="429" y="-12"/>
      <point x="432" y="-5" type="curve" smooth="yes"/>
      <point x="671" y="513" type="line" smooth="yes"/>
      <point x="678" y="526"/>
      <point x="686" y="527"/>
      <point x="688" y="513" type="curve"/>
      <point x="694" y="363"/>
      <point x="700" y="265"/>
      <point x="700" y="105" type="curve" smooth="yes"/>
      <point x="700" y="59"/>
      <point x="688" y="40"/>
      <point x="648" y="35" type="curve" smooth="yes"/>
      <point x="624" y="31"/>
      <point x="614" y="23"/>
      <point x="614" y="10" type="curve" smooth="yes"/>
      <point x="614" y="-1"/>
      <point x="625" y="-5"/>
      <point x="642" y="-5" type="curve" smooth="yes"/>
      <point x="694" y="-5"/>
      <point x="704" y="0"/>
      <point x="743" y="0" type="curve" smooth="yes"/>
      <point x="787" y="0"/>
      <point x="804" y="-5"/>
      <point x="856" y="-5" type="curve" smooth="yes"/>
      <point x="872" y="-5"/>
      <point x="884" y="-1"/>
      <point x="884" y="10" type="curve" smooth="yes"/>
      <point x="884" y="23"/>
      <point x="874" y="31"/>
      <point x="850" y="35" type="curve" smooth="yes"/>
      <point x="799" y="44"/>
      <point x="775" y="64"/>
      <point x="773" y="104" type="curve" smooth="yes"/>
      <point x="766" y="268"/>
      <point x="752" y="416"/>
      <point x="752" y="598" type="curve" smooth="yes"/>
      <point x="752" y="617"/>
      <point x="762" y="635"/>
      <point x="777" y="641" type="curve" smooth="yes"/>
      <point x="796" y="650"/>
      <point x="820" y="659"/>
      <point x="837" y="668" type="curve" smooth="yes"/>
      <point x="858" y="678"/>
      <point x="864" y="683"/>
      <point x="864" y="694" type="curve" smooth="yes"/>
      <point x="864" y="705"/>
      <point x="849" y="707"/>
      <point x="843" y="707" type="curve" smooth="yes"/>
      <point x="820" y="707"/>
      <point x="769" y="699"/>
      <point x="728" y="699" type="curve" smooth="yes"/>
      <point x="692" y="699" type="line" smooth="yes"/>
      <point x="687" y="699"/>
      <point x="685" y="694"/>
      <point x="683" y="686" type="curve" smooth="yes"/>
      <point x="678" y="665"/>
      <point x="670" y="632"/>
      <point x="664" y="610" type="curve"/>
      <point x="453" y="140" type="line" smooth="yes"/>
      <point x="447" y="128"/>
      <point x="435" y="130"/>
      <point x="431" y="142" type="curve" smooth="yes"/>
      <point x="263" y="611" type="line" smooth="yes"/>
      <point x="255" y="634"/>
      <point x="248" y="659"/>
      <point x="241" y="682" type="curve" smooth="yes"/>
      <point x="238" y="692"/>
      <point x="231" y="698"/>
      <point x="222" y="698" type="curve" smooth="yes"/>
      <point x="197" y="698"/>
      <point x="103" y="706"/>
      <point x="78" y="706" type="curve" smooth="yes"/>
      <point x="58" y="706"/>
      <point x="44" y="703"/>
      <point x="44" y="690" type="curve" smooth="yes"/>
      <point x="44" y="678"/>
      <point x="54" y="670"/>
      <point x="67" y="667" type="curve" smooth="yes"/>
      <point x="95" y="661"/>
      <point x="115" y="656"/>
      <point x="136" y="638" type="curve" smooth="yes"/>
      <point x="149" y="626"/>
      <point x="152" y="613"/>
      <point x="153" y="598" type="curve" smooth="yes"/>
      <point x="154" y="588"/>
      <point x="154" y="570"/>
      <point x="154" y="553" type="curve" smooth="yes"/>
      <point x="154" y="464"/>
      <point x="137" y="307"/>
      <point x="114" y="117" type="curve" smooth="yes"/>
      <point x="107" y="67"/>
      <point x="86" y="40"/>
      <point x="55" y="34" type="curve" smooth="yes"/>
      <point x="31" y="29"/>
      <point x="21" y="22"/>
      <point x="21" y="10" type="curve" smooth="yes"/>
      <point x="21" y="-1"/>
      <point x="33" y="-5"/>
    </contour>
  </outline>
</glyph>
<glyph name="N" format="1">
  <advance width="822"/>
  <unicode hex="004E"/>
  <outline>
    <contour>
      <point x="694" y="-17" type="curve" smooth="yes"/>
      <point x="705" y="-17"/>
      <point x="716" y="-13"/>
      <point x="716" y="8" type="curve" smooth="yes"/>
      <point x="716" y="21"/>
      <point x="711" y="57"/>
      <point x="711" y="110" type="curve" smooth="yes"/>
      <point x="711" y="277"/>
      <point x="714" y="561"/>
      <point x="716" y="595" type="curve" smooth="yes"/>
      <point x="720" y="636"/>
      <point x="733" y="654"/>
      <point x="779" y="662" type="curve" smooth="yes"/>
      <point x="802" y="667"/>
      <point x="811" y="675"/>
      <point x="811" y="687" type="curve" smooth="yes"/>
      <point x="811" y="698"/>
      <point x="800" y="702"/>
      <point x="783" y="702" type="curve" smooth="yes"/>
      <point x="722" y="702"/>
      <point x="715" y="698"/>
      <point x="671" y="698" type="curve" smooth="yes"/>
      <point x="643" y="698"/>
      <point x="629" y="700"/>
      <point x="598" y="700" type="curve" smooth="yes"/>
      <point x="582" y="700"/>
      <point x="562" y="696"/>
      <point x="562" y="685" type="curve" smooth="yes"/>
      <point x="562" y="673"/>
      <point x="580" y="665"/>
      <point x="603" y="660" type="curve" smooth="yes"/>
      <point x="633" y="653"/>
      <point x="661" y="624"/>
      <point x="662" y="592" type="curve"/>
      <point x="662" y="414"/>
      <point x="661" y="203"/>
      <point x="659" y="146" type="curve"/>
      <point x="658" y="131"/>
      <point x="654" y="125"/>
      <point x="649" y="125" type="curve" smooth="yes"/>
      <point x="641" y="125"/>
      <point x="628" y="139"/>
      <point x="623" y="145" type="curve" smooth="yes"/>
      <point x="601" y="170"/>
      <point x="236" y="655"/>
      <point x="217" y="684" type="curve"/>
      <point x="209" y="694"/>
      <point x="204" y="703"/>
      <point x="192" y="703" type="curve" smooth="yes"/>
      <point x="117" y="703"/>
      <point x="116" y="706"/>
      <point x="36" y="708" type="curve" smooth="yes"/>
      <point x="29" y="708"/>
      <point x="13" y="706"/>
      <point x="13" y="691" type="curve" smooth="yes"/>
      <point x="13" y="677"/>
      <point x="35" y="665"/>
      <point x="49" y="660" type="curve" smooth="yes"/>
      <point x="102" y="643"/>
      <point x="140" y="621"/>
      <point x="140" y="551" type="curve" smooth="yes"/>
      <point x="140" y="374"/>
      <point x="131" y="201"/>
      <point x="124" y="121" type="curve" smooth="yes"/>
      <point x="119" y="75"/>
      <point x="104" y="44"/>
      <point x="66" y="34" type="curve" smooth="yes"/>
      <point x="43" y="28"/>
      <point x="34" y="22"/>
      <point x="34" y="10" type="curve" smooth="yes"/>
      <point x="34" y="-1"/>
      <point x="45" y="-5"/>
      <point x="62" y="-5" type="curve" smooth="yes"/>
      <point x="118" y="-5"/>
      <point x="119" y="0"/>
      <point x="156" y="0" type="curve" smooth="yes"/>
      <point x="193" y="0"/>
      <point x="196" y="-5"/>
      <point x="253" y="-5" type="curve" smooth="yes"/>
      <point x="270" y="-5"/>
      <point x="282" y="-1"/>
      <point x="282" y="10" type="curve" smooth="yes"/>
      <point x="282" y="22"/>
      <point x="272" y="29"/>
      <point x="249" y="34" type="curve" smooth="yes"/>
      <point x="200" y="44"/>
      <point x="186" y="80"/>
      <point x="186" y="119" type="curve" smooth="yes"/>
      <point x="186" y="252"/>
      <point x="190" y="442"/>
      <point x="191" y="549" type="curve" smooth="yes"/>
      <point x="191" y="557"/>
      <point x="193" y="570"/>
      <point x="200" y="570" type="curve" smooth="yes"/>
      <point x="205" y="570"/>
      <point x="212" y="565"/>
      <point x="222" y="553" type="curve" smooth="yes"/>
      <point x="247" y="523"/>
      <point x="588" y="74"/>
      <point x="607" y="46" type="curve" smooth="yes"/>
      <point x="640" y="2"/>
      <point x="682" y="-17"/>
    </contour>
  </outline>
</glyph>
<glyph name="Q" format="1">
  <advance width="760"/>
  <unicode hex="0051"/>
  <outline>
    <contour>
      <point x="767" y="-248" type="curve" smooth="yes"/>
      <point x="806" y="-248"/>
      <point x="849" y="-238"/>
      <point x="888" y="-215" type="curve" smooth="yes"/>
      <point x="904" y="-206"/>
      <point x="907" y="-199"/>
      <point x="907" y="-187" type="curve" smooth="yes"/>
      <point x="907" y="-181"/>
      <point x="899" y="-177"/>
      <point x="893" y="-177" type="curve" smooth="yes"/>
      <point x="886" y="-177"/>
      <point x="878" y="-179"/>
      <point x="872" y="-181" type="curve"/>
      <point x="858" y="-187"/>
      <point x="831" y="-190"/>
      <point x="803" y="-190" type="curve" smooth="yes"/>
      <point x="725" y="-190"/>
      <point x="658" y="-174"/>
      <point x="592" y="-129" type="curve" smooth="yes"/>
      <point x="539" y="-93"/>
      <point x="501" y="-61"/>
      <point x="458" y="-20" type="curve"/>
      <point x="455" y="-17"/>
      <point x="454" y="-14"/>
      <point x="454" y="-11" type="curve" smooth="yes"/>
      <point x="454" y="-9"/>
      <point x="455" y="-6"/>
      <point x="463" y="-4" type="curve" smooth="yes"/>
      <point x="628" y="36"/>
      <point x="713" y="193"/>
      <point x="713" y="354" type="curve" smooth="yes"/>
      <point x="713" y="571"/>
      <point x="557" y="714"/>
      <point x="385" y="714" type="curve" smooth="yes"/>
      <point x="163" y="714"/>
      <point x="47" y="536"/>
      <point x="47" y="346" type="curve" smooth="yes"/>
      <point x="47" y="175"/>
      <point x="141" y="57"/>
      <point x="259" y="9" type="curve" smooth="yes"/>
      <point x="293" y="-4"/>
      <point x="334" y="-19"/>
      <point x="379" y="-54" type="curve" smooth="yes"/>
      <point x="447" y="-105"/>
      <point x="490" y="-137"/>
      <point x="544" y="-174" type="curve" smooth="yes"/>
      <point x="612" y="-220"/>
      <point x="672" y="-248"/>
    </contour>
    <contour>
      <point x="391" y="39" type="curve" smooth="yes"/>
      <point x="217" y="39"/>
      <point x="125" y="197"/>
      <point x="125" y="392" type="curve" smooth="yes"/>
      <point x="125" y="552"/>
      <point x="209" y="659"/>
      <point x="368" y="659" type="curve" smooth="yes"/>
      <point x="544" y="659"/>
      <point x="635" y="502"/>
      <point x="635" y="309" type="curve" smooth="yes"/>
      <point x="635" y="147"/>
      <point x="552" y="39"/>
    </contour>
  </outline>
</glyph>
<glyph name="R" format="1">
  <advance width="729"/>
  <unicode hex="0052"/>
  <outline>
    <contour>
      <point x="652" y="-21" type="curve" smooth="yes"/>
      <point x="677" y="-21"/>
      <point x="735" y="-15"/>
      <point x="735" y="21" type="curve" smooth="yes"/>
      <point x="735" y="31"/>
      <point x="730" y="34"/>
      <point x="719" y="34" type="curve" smooth="yes"/>
      <point x="667" y="34"/>
      <point x="631" y="35"/>
      <point x="593" y="68" type="curve" smooth="yes"/>
      <point x="489" y="158"/>
      <point x="440" y="237"/>
      <point x="370" y="335" type="curve" smooth="yes"/>
      <point x="366" y="342"/>
      <point x="365" y="347"/>
      <point x="370" y="349" type="curve"/>
      <point x="431" y="379"/>
      <point x="494" y="433"/>
      <point x="494" y="530" type="curve" smooth="yes"/>
      <point x="494" y="647"/>
      <point x="417" y="707"/>
      <point x="276" y="707" type="curve" smooth="yes"/>
      <point x="219" y="707"/>
      <point x="201" y="702"/>
      <point x="164" y="702" type="curve" smooth="yes"/>
      <point x="125" y="702"/>
      <point x="119" y="704"/>
      <point x="68" y="704" type="curve" smooth="yes"/>
      <point x="50" y="704"/>
      <point x="38" y="699"/>
      <point x="38" y="688" type="curve" smooth="yes"/>
      <point x="38" y="676"/>
      <point x="48" y="668"/>
      <point x="71" y="664" type="curve" smooth="yes"/>
      <point x="126" y="656"/>
      <point x="134" y="641"/>
      <point x="134" y="572" type="curve" smooth="yes"/>
      <point x="134" y="114" type="line" smooth="yes"/>
      <point x="134" y="62"/>
      <point x="115" y="43"/>
      <point x="63" y="33" type="curve" smooth="yes"/>
      <point x="40" y="28"/>
      <point x="30" y="23"/>
      <point x="30" y="11" type="curve" smooth="yes"/>
      <point x="30" y="0"/>
      <point x="42" y="-5"/>
      <point x="60" y="-5" type="curve" smooth="yes"/>
      <point x="111" y="-5"/>
      <point x="131" y="3"/>
      <point x="176" y="3" type="curve" smooth="yes"/>
      <point x="214" y="3"/>
      <point x="227" y="-5"/>
      <point x="276" y="-5" type="curve" smooth="yes"/>
      <point x="292" y="-5"/>
      <point x="304" y="0"/>
      <point x="304" y="11" type="curve" smooth="yes"/>
      <point x="304" y="23"/>
      <point x="294" y="28"/>
      <point x="271" y="33" type="curve" smooth="yes"/>
      <point x="221" y="43"/>
      <point x="199" y="77"/>
      <point x="199" y="123" type="curve" smooth="yes"/>
      <point x="199" y="306" type="line" smooth="yes"/>
      <point x="199" y="318"/>
      <point x="203" y="327"/>
      <point x="215" y="326" type="curve" smooth="yes"/>
      <point x="241" y="324"/>
      <point x="274" y="319"/>
      <point x="305" y="305" type="curve" smooth="yes"/>
      <point x="326" y="295"/>
      <point x="338" y="285"/>
      <point x="351" y="264" type="curve" smooth="yes"/>
      <point x="421" y="147"/>
      <point x="455" y="103"/>
      <point x="509" y="37" type="curve" smooth="yes"/>
      <point x="545" y="-9"/>
      <point x="593" y="-21"/>
    </contour>
    <contour>
      <point x="257" y="365" type="curve" smooth="yes"/>
      <point x="220" y="365"/>
      <point x="199" y="367"/>
      <point x="199" y="397" type="curve" smooth="yes"/>
      <point x="199" y="469"/>
      <point x="200" y="546"/>
      <point x="201" y="577" type="curve" smooth="yes"/>
      <point x="204" y="640"/>
      <point x="213" y="661"/>
      <point x="260" y="661" type="curve" smooth="yes"/>
      <point x="398" y="661"/>
      <point x="421" y="594"/>
      <point x="421" y="512" type="curve" smooth="yes"/>
      <point x="421" y="435"/>
      <point x="358" y="365"/>
    </contour>
  </outline>
</glyph>
<glyph name="U" format="1">
  <advance width="752"/>
  <unicode hex="0055"/>
  <outline>
    <contour>
      <point x="381" y="-14" type="curve" smooth="yes"/>
      <point x="532" y="-14"/>
      <point x="646" y="98"/>
      <point x="651" y="258" type="curve" smooth="yes"/>
      <point x="654" y="367"/>
      <point x="654" y="472"/>
      <point x="661" y="587" type="curve" smooth="yes"/>
      <point x="663" y="627"/>
      <point x="675" y="652"/>
      <point x="708" y="662" type="curve" smooth="yes"/>
      <point x="732" y="669"/>
      <point x="742" y="676"/>
      <point x="742" y="688" type="curve" smooth="yes"/>
      <point x="742" y="699"/>
      <point x="729" y="703"/>
      <point x="712" y="703" type="curve" smooth="yes"/>
      <point x="687" y="703"/>
      <point x="661" y="700"/>
      <point x="627" y="700" type="curve" smooth="yes"/>
      <point x="597" y="700"/>
      <point x="580" y="701"/>
      <point x="548" y="701" type="curve" smooth="yes"/>
      <point x="531" y="701"/>
      <point x="519" y="697"/>
      <point x="519" y="686" type="curve" smooth="yes"/>
      <point x="519" y="674"/>
      <point x="537" y="665"/>
      <point x="552" y="660" type="curve" smooth="yes"/>
      <point x="581" y="650"/>
      <point x="594" y="603"/>
      <point x="595" y="552" type="curve" smooth="yes"/>
      <point x="597" y="475"/>
      <point x="599" y="369"/>
      <point x="599" y="304" type="curve" smooth="yes"/>
      <point x="599" y="149"/>
      <point x="535" y="45"/>
      <point x="391" y="45" type="curve" smooth="yes"/>
      <point x="263" y="45"/>
      <point x="171" y="116"/>
      <point x="171" y="276" type="curve" smooth="yes"/>
      <point x="171" y="589" type="line" smooth="yes"/>
      <point x="171" y="629"/>
      <point x="197" y="655"/>
      <point x="216" y="661" type="curve" smooth="yes"/>
      <point x="239" y="670"/>
      <point x="250" y="676"/>
      <point x="250" y="687" type="curve" smooth="yes"/>
      <point x="250" y="698"/>
      <point x="239" y="702"/>
      <point x="223" y="702" type="curve" smooth="yes"/>
      <point x="201" y="702"/>
      <point x="174" y="700"/>
      <point x="144" y="700" type="curve" smooth="yes"/>
      <point x="108" y="700"/>
      <point x="81" y="703"/>
      <point x="51" y="703" type="curve" smooth="yes"/>
      <point x="35" y="703"/>
      <point x="24" y="699"/>
      <point x="24" y="688" type="curve" smooth="yes"/>
      <point x="24" y="677"/>
      <point x="34" y="668"/>
      <point x="57" y="660" type="curve" smooth="yes"/>
      <point x="81" y="652"/>
      <point x="106" y="635"/>
      <point x="106" y="587" type="curve" smooth="yes"/>
      <point x="106" y="247" type="line" smooth="yes"/>
      <point x="106" y="90"/>
      <point x="198" y="-14"/>
    </contour>
  </outline>
</glyph>
<glyph name="W" format="1">
  <advance width="954"/>
  <unicode hex="0057"/>
  <outline>
    <contour>
      <point x="348" y="-16" type="curve" smooth="yes"/>
      <point x="357" y="-16"/>
      <point x="368" y="1"/>
      <point x="374" y="15" type="curve" smooth="yes"/>
      <point x="420" y="136"/>
      <point x="450" y="218"/>
      <point x="494" y="330" type="curve" smooth="yes"/>
      <point x="499" y="344"/>
      <point x="501" y="346"/>
      <point x="505" y="336" type="curve"/>
      <point x="555" y="206"/>
      <point x="581" y="122"/>
      <point x="627" y="7" type="curve" smooth="yes"/>
      <point x="632" y="-2"/>
      <point x="641" y="-12"/>
      <point x="647" y="-12" type="curve" smooth="yes"/>
      <point x="656" y="-12"/>
      <point x="666" y="3"/>
      <point x="668" y="11" type="curve" smooth="yes"/>
      <point x="848" y="574" type="line"/>
      <point x="860" y="606"/>
      <point x="881" y="652"/>
      <point x="932" y="664" type="curve" smooth="yes"/>
      <point x="957" y="670"/>
      <point x="968" y="677"/>
      <point x="968" y="689" type="curve" smooth="yes"/>
      <point x="968" y="699"/>
      <point x="955" y="703"/>
      <point x="937" y="703" type="curve" smooth="yes"/>
      <point x="912" y="703"/>
      <point x="879" y="699"/>
      <point x="845" y="699" type="curve" smooth="yes"/>
      <point x="818" y="699"/>
      <point x="799" y="700"/>
      <point x="772" y="700" type="curve" smooth="yes"/>
      <point x="754" y="700"/>
      <point x="741" y="697"/>
      <point x="741" y="686" type="curve" smooth="yes"/>
      <point x="741" y="674"/>
      <point x="758" y="667"/>
      <point x="772" y="661" type="curve" smooth="yes"/>
      <point x="792" y="655"/>
      <point x="801" y="640"/>
      <point x="801" y="620" type="curve" smooth="yes"/>
      <point x="801" y="609"/>
      <point x="799" y="596"/>
      <point x="794" y="582" type="curve"/>
      <point x="750" y="427"/>
      <point x="693" y="237"/>
      <point x="659" y="137" type="curve"/>
      <point x="655" y="128"/>
      <point x="650" y="124"/>
      <point x="647" y="131" type="curve" smooth="yes"/>
      <point x="546" y="412" type="line"/>
      <point x="543" y="419"/>
      <point x="548" y="442"/>
      <point x="552" y="452" type="curve" smooth="yes"/>
      <point x="569" y="499"/>
      <point x="602" y="581"/>
      <point x="616" y="610" type="curve" smooth="yes"/>
      <point x="635" y="644"/>
      <point x="645" y="656"/>
      <point x="685" y="665" type="curve" smooth="yes"/>
      <point x="709" y="670"/>
      <point x="719" y="678"/>
      <point x="719" y="690" type="curve" smooth="yes"/>
      <point x="719" y="699"/>
      <point x="707" y="703"/>
      <point x="690" y="703" type="curve" smooth="yes"/>
      <point x="664" y="703"/>
      <point x="649" y="699"/>
      <point x="625" y="699" type="curve" smooth="yes"/>
      <point x="605" y="699"/>
      <point x="599" y="702"/>
      <point x="568" y="702" type="curve" smooth="yes"/>
      <point x="551" y="702"/>
      <point x="538" y="698"/>
      <point x="538" y="688" type="curve" smooth="yes"/>
      <point x="538" y="670"/>
      <point x="573" y="668"/>
      <point x="573" y="642" type="curve" smooth="yes"/>
      <point x="573" y="640"/>
      <point x="572" y="636"/>
      <point x="571" y="633" type="curve"/>
      <point x="563" y="607"/>
      <point x="544" y="552"/>
      <point x="526" y="507" type="curve" smooth="yes"/>
      <point x="517" y="488"/>
      <point x="514" y="490"/>
      <point x="507" y="507" type="curve" smooth="yes"/>
      <point x="497" y="533"/>
      <point x="465" y="611"/>
      <point x="459" y="631" type="curve" smooth="yes"/>
      <point x="457" y="636"/>
      <point x="456" y="640"/>
      <point x="456" y="643" type="curve" smooth="yes"/>
      <point x="456" y="667"/>
      <point x="498" y="670"/>
      <point x="498" y="688" type="curve" smooth="yes"/>
      <point x="498" y="698"/>
      <point x="486" y="702"/>
      <point x="469" y="702" type="curve" smooth="yes"/>
      <point x="450" y="702"/>
      <point x="424" y="700"/>
      <point x="395" y="700" type="curve" smooth="yes"/>
      <point x="361" y="700"/>
      <point x="336" y="703"/>
      <point x="306" y="703" type="curve" smooth="yes"/>
      <point x="290" y="703"/>
      <point x="278" y="699"/>
      <point x="278" y="689" type="curve" smooth="yes"/>
      <point x="278" y="677"/>
      <point x="290" y="669"/>
      <point x="315" y="662" type="curve" smooth="yes"/>
      <point x="349" y="652"/>
      <point x="395" y="624"/>
      <point x="412" y="581" type="curve" smooth="yes"/>
      <point x="467" y="439" type="line" smooth="yes"/>
      <point x="472" y="425"/>
      <point x="475" y="416"/>
      <point x="475" y="408" type="curve" smooth="yes"/>
      <point x="475" y="402"/>
      <point x="474" y="394"/>
      <point x="469" y="384" type="curve" smooth="yes"/>
      <point x="374" y="147" type="line"/>
      <point x="369" y="135"/>
      <point x="364" y="132"/>
      <point x="357" y="148" type="curve" smooth="yes"/>
      <point x="286" y="328"/>
      <point x="253" y="404"/>
      <point x="186" y="588" type="curve"/>
      <point x="183" y="594"/>
      <point x="177" y="613"/>
      <point x="177" y="631" type="curve" smooth="yes"/>
      <point x="177" y="646"/>
      <point x="183" y="659"/>
      <point x="198" y="663" type="curve" smooth="yes"/>
      <point x="222" y="670"/>
      <point x="232" y="677"/>
      <point x="232" y="688" type="curve" smooth="yes"/>
      <point x="232" y="698"/>
      <point x="220" y="702"/>
      <point x="204" y="702" type="curve" smooth="yes"/>
      <point x="184" y="702"/>
      <point x="149" y="700"/>
      <point x="113" y="700" type="curve" smooth="yes"/>
      <point x="80" y="700"/>
      <point x="58" y="703"/>
      <point x="28" y="703" type="curve" smooth="yes"/>
      <point x="12" y="703"/>
      <point x="0" y="699"/>
      <point x="0" y="689" type="curve" smooth="yes"/>
      <point x="0" y="678"/>
      <point x="11" y="670"/>
      <point x="39" y="660" type="curve" smooth="yes"/>
      <point x="72" y="650"/>
      <point x="96" y="629"/>
      <point x="113" y="590" type="curve"/>
      <point x="331" y="12" type="line" smooth="yes"/>
      <point x="336" y="-1"/>
      <point x="344" y="-16"/>
    </contour>
  </outline>
</glyph>
<glyph name="X" format="1">
  <advance width="719"/>
  <unicode hex="0058"/>
  <outline>
    <contour>
      <point x="25" y="-5" type="curve" smooth="yes"/>
      <point x="59" y="-5"/>
      <point x="110" y="1"/>
      <point x="157" y="1" type="curve" smooth="yes"/>
      <point x="192" y="1"/>
      <point x="227" y="-1"/>
      <point x="245" y="-1" type="curve" smooth="yes"/>
      <point x="262" y="-1"/>
      <point x="274" y="4"/>
      <point x="274" y="15" type="curve" smooth="yes"/>
      <point x="274" y="26"/>
      <point x="264" y="31"/>
      <point x="243" y="38" type="curve"/>
      <point x="221" y="44"/>
      <point x="208" y="57"/>
      <point x="208" y="73" type="curve" smooth="yes"/>
      <point x="208" y="80"/>
      <point x="211" y="88"/>
      <point x="217" y="97" type="curve" smooth="yes"/>
      <point x="348" y="293" type="line" smooth="yes"/>
      <point x="355" y="302"/>
      <point x="361" y="302"/>
      <point x="371" y="288" type="curve" smooth="yes"/>
      <point x="480" y="117" type="line"/>
      <point x="489" y="104"/>
      <point x="492" y="94"/>
      <point x="492" y="84" type="curve" smooth="yes"/>
      <point x="492" y="61"/>
      <point x="473" y="45"/>
      <point x="453" y="39" type="curve" smooth="yes"/>
      <point x="438" y="34"/>
      <point x="419" y="28"/>
      <point x="419" y="16" type="curve" smooth="yes"/>
      <point x="419" y="6"/>
      <point x="430" y="0"/>
      <point x="447" y="0" type="curve" smooth="yes"/>
      <point x="470" y="0"/>
      <point x="504" y="1"/>
      <point x="544" y="1" type="curve" smooth="yes"/>
      <point x="589" y="1"/>
      <point x="656" y="-5"/>
      <point x="683" y="-5" type="curve" smooth="yes"/>
      <point x="699" y="-5"/>
      <point x="711" y="-1"/>
      <point x="711" y="9" type="curve" smooth="yes"/>
      <point x="711" y="20"/>
      <point x="701" y="27"/>
      <point x="673" y="34" type="curve" smooth="yes"/>
      <point x="635" y="45"/>
      <point x="590" y="74"/>
      <point x="559" y="120" type="curve" smooth="yes"/>
      <point x="408" y="350" type="line"/>
      <point x="400" y="365"/>
      <point x="405" y="369"/>
      <point x="421" y="392" type="curve" smooth="yes"/>
      <point x="542" y="559" type="line" smooth="yes"/>
      <point x="582" y="612"/>
      <point x="639" y="657"/>
      <point x="674" y="666" type="curve" smooth="yes"/>
      <point x="700" y="673"/>
      <point x="711" y="679"/>
      <point x="711" y="691" type="curve" smooth="yes"/>
      <point x="711" y="700"/>
      <point x="698" y="706"/>
      <point x="681" y="706" type="curve" smooth="yes"/>
      <point x="650" y="706"/>
      <point x="600" y="700"/>
      <point x="558" y="700" type="curve" smooth="yes"/>
      <point x="526" y="700"/>
      <point x="490" y="702"/>
      <point x="467" y="702" type="curve" smooth="yes"/>
      <point x="449" y="702"/>
      <point x="437" y="696"/>
      <point x="437" y="686" type="curve" smooth="yes"/>
      <point x="437" y="675"/>
      <point x="454" y="665"/>
      <point x="470" y="662" type="curve" smooth="yes"/>
      <point x="497" y="657"/>
      <point x="514" y="648"/>
      <point x="514" y="633" type="curve" smooth="yes"/>
      <point x="514" y="622"/>
      <point x="507" y="608"/>
      <point x="496" y="591" type="curve" smooth="yes"/>
      <point x="384" y="423" type="line" smooth="yes"/>
      <point x="374" y="408"/>
      <point x="368" y="406"/>
      <point x="353" y="426" type="curve" smooth="yes"/>
      <point x="256" y="576" type="line" smooth="yes"/>
      <point x="237" y="602"/>
      <point x="230" y="617"/>
      <point x="230" y="628" type="curve" smooth="yes"/>
      <point x="230" y="646"/>
      <point x="249" y="654"/>
      <point x="275" y="663" type="curve" smooth="yes"/>
      <point x="295" y="670"/>
      <point x="308" y="674"/>
      <point x="308" y="685" type="curve" smooth="yes"/>
      <point x="308" y="696"/>
      <point x="297" y="702"/>
      <point x="281" y="702" type="curve" smooth="yes"/>
      <point x="262" y="702"/>
      <point x="225" y="700"/>
      <point x="187" y="700" type="curve" smooth="yes"/>
      <point x="139" y="700"/>
      <point x="78" y="705"/>
      <point x="48" y="705" type="curve" smooth="yes"/>
      <point x="31" y="705"/>
      <point x="19" y="702"/>
      <point x="19" y="691" type="curve" smooth="yes"/>
      <point x="19" y="680"/>
      <point x="31" y="673"/>
      <point x="57" y="665" type="curve" smooth="yes"/>
      <point x="97" y="653"/>
      <point x="136" y="635"/>
      <point x="180" y="570" type="curve" smooth="yes"/>
      <point x="306" y="378" type="line" smooth="yes"/>
      <point x="325" y="351"/>
      <point x="316" y="335"/>
      <point x="302" y="316" type="curve"/>
      <point x="174" y="130" type="line" smooth="yes"/>
      <point x="136" y="77"/>
      <point x="63" y="46"/>
      <point x="31" y="37" type="curve" smooth="yes"/>
      <point x="6" y="29"/>
      <point x="-5" y="22"/>
      <point x="-5" y="11" type="curve" smooth="yes"/>
      <point x="-5" y="1"/>
      <point x="7" y="-5"/>
    </contour>
  </outline>
</glyph>
<glyph name="Y" format="1">
  <advance width="579"/>
  <unicode hex="0059"/>
  <outline>
    <contour>
      <point x="184" y="-5" type="curve" smooth="yes"/>
      <point x="235" y="-5"/>
      <point x="258" y="0"/>
      <point x="306" y="0" type="curve" smooth="yes"/>
      <point x="350" y="0"/>
      <point x="366" y="-5"/>
      <point x="417" y="-5" type="curve" smooth="yes"/>
      <point x="435" y="-5"/>
      <point x="447" y="-1"/>
      <point x="447" y="9" type="curve" smooth="yes"/>
      <point x="447" y="21"/>
      <point x="437" y="28"/>
      <point x="413" y="32" type="curve" smooth="yes"/>
      <point x="362" y="42"/>
      <point x="333" y="73"/>
      <point x="333" y="121" type="curve" smooth="yes"/>
      <point x="333" y="267" type="line" smooth="yes"/>
      <point x="333" y="310"/>
      <point x="332" y="318"/>
      <point x="359" y="365" type="curve" smooth="yes"/>
      <point x="406" y="446"/>
      <point x="428" y="485"/>
      <point x="485" y="575" type="curve" smooth="yes"/>
      <point x="519" y="626"/>
      <point x="536" y="650"/>
      <point x="569" y="659" type="curve" smooth="yes"/>
      <point x="597" y="668"/>
      <point x="622" y="676"/>
      <point x="622" y="687" type="curve" smooth="yes"/>
      <point x="622" y="698"/>
      <point x="611" y="703"/>
      <point x="592" y="703" type="curve" smooth="yes"/>
      <point x="569" y="703"/>
      <point x="528" y="700"/>
      <point x="486" y="700" type="curve" smooth="yes"/>
      <point x="456" y="700"/>
      <point x="434" y="701"/>
      <point x="403" y="701" type="curve" smooth="yes"/>
      <point x="385" y="701"/>
      <point x="373" y="697"/>
      <point x="373" y="687" type="curve" smooth="yes"/>
      <point x="373" y="676"/>
      <point x="393" y="664"/>
      <point x="407" y="661" type="curve" smooth="yes"/>
      <point x="424" y="658"/>
      <point x="444" y="652"/>
      <point x="444" y="629" type="curve" smooth="yes"/>
      <point x="444" y="618"/>
      <point x="440" y="600"/>
      <point x="427" y="576" type="curve" smooth="yes"/>
      <point x="393" y="511"/>
      <point x="373" y="470"/>
      <point x="342" y="418" type="curve" smooth="yes"/>
      <point x="327" y="393"/>
      <point x="320" y="382"/>
      <point x="312" y="382" type="curve" smooth="yes"/>
      <point x="305" y="382"/>
      <point x="296" y="393"/>
      <point x="282" y="420" type="curve" smooth="yes"/>
      <point x="192" y="601" type="line" smooth="yes"/>
      <point x="183" y="617"/>
      <point x="179" y="630"/>
      <point x="179" y="637" type="curve" smooth="yes"/>
      <point x="179" y="652"/>
      <point x="193" y="657"/>
      <point x="210" y="662" type="curve" smooth="yes"/>
      <point x="232" y="669"/>
      <point x="244" y="676"/>
      <point x="244" y="688" type="curve" smooth="yes"/>
      <point x="244" y="698"/>
      <point x="232" y="702"/>
      <point x="215" y="702" type="curve" smooth="yes"/>
      <point x="195" y="702"/>
      <point x="169" y="700"/>
      <point x="139" y="700" type="curve" smooth="yes"/>
      <point x="95" y="700"/>
      <point x="57" y="703"/>
      <point x="28" y="703" type="curve" smooth="yes"/>
      <point x="12" y="703"/>
      <point x="0" y="699"/>
      <point x="0" y="689" type="curve" smooth="yes"/>
      <point x="0" y="677"/>
      <point x="11" y="669"/>
      <point x="36" y="661" type="curve" smooth="yes"/>
      <point x="69" y="651"/>
      <point x="114" y="595"/>
      <point x="127" y="572" type="curve" smooth="yes"/>
      <point x="243" y="366" type="line"/>
      <point x="248" y="356"/>
      <point x="268" y="316"/>
      <point x="268" y="289" type="curve" smooth="yes"/>
      <point x="268" y="121" type="line" smooth="yes"/>
      <point x="268" y="70"/>
      <point x="239" y="42"/>
      <point x="188" y="32" type="curve" smooth="yes"/>
      <point x="165" y="28"/>
      <point x="155" y="21"/>
      <point x="155" y="9" type="curve" smooth="yes"/>
      <point x="155" y="-1"/>
      <point x="167" y="-5"/>
    </contour>
  </outline>
</glyph>
<glyph name="Z" format="1">
  <advance width="629"/>
  <unicode hex="005A"/>
  <outline>
    <contour>
      <point x="556" y="-5" type="curve" smooth="yes"/>
      <point x="567" y="-5"/>
      <point x="571" y="4"/>
      <point x="575" y="12" type="curve" smooth="yes"/>
      <point x="586" y="36"/>
      <point x="613" y="147"/>
      <point x="613" y="158" type="curve" smooth="yes"/>
      <point x="613" y="170"/>
      <point x="609" y="176"/>
      <point x="601" y="176" type="curve" smooth="yes"/>
      <point x="587" y="176"/>
      <point x="574" y="158"/>
      <point x="568" y="145" type="curve" smooth="yes"/>
      <point x="545" y="87"/>
      <point x="507" y="57"/>
      <point x="451" y="53" type="curve" smooth="yes"/>
      <point x="400" y="50"/>
      <point x="347" y="48"/>
      <point x="298" y="48" type="curve" smooth="yes"/>
      <point x="250" y="48"/>
      <point x="199" y="49"/>
      <point x="168" y="53" type="curve"/>
      <point x="160" y="54"/>
      <point x="156" y="62"/>
      <point x="156" y="70" type="curve" smooth="yes"/>
      <point x="156" y="74"/>
      <point x="156" y="79"/>
      <point x="159" y="83" type="curve" smooth="yes"/>
      <point x="292" y="275"/>
      <point x="390" y="408"/>
      <point x="529" y="594" type="curve" smooth="yes"/>
      <point x="595" y="682" type="line" smooth="yes"/>
      <point x="599" y="687"/>
      <point x="589" y="700"/>
      <point x="583" y="700" type="curve" smooth="yes"/>
      <point x="506" y="698"/>
      <point x="429" y="697"/>
      <point x="342" y="697" type="curve" smooth="yes"/>
      <point x="295" y="697"/>
      <point x="245" y="697"/>
      <point x="211" y="697" type="curve" smooth="yes"/>
      <point x="175" y="697"/>
      <point x="135" y="707"/>
      <point x="121" y="713" type="curve" smooth="yes"/>
      <point x="110" y="718"/>
      <point x="94" y="727"/>
      <point x="89" y="727" type="curve" smooth="yes"/>
      <point x="83" y="727"/>
      <point x="74" y="725"/>
      <point x="73" y="710" type="curve" smooth="yes"/>
      <point x="70" y="668"/>
      <point x="52" y="613"/>
      <point x="46" y="595" type="curve"/>
      <point x="42" y="585"/>
      <point x="37" y="570"/>
      <point x="38" y="561" type="curve" smooth="yes"/>
      <point x="38" y="553"/>
      <point x="44" y="548"/>
      <point x="52" y="548" type="curve" smooth="yes"/>
      <point x="71" y="548"/>
      <point x="79" y="569"/>
      <point x="86" y="584" type="curve"/>
      <point x="103" y="627"/>
      <point x="145" y="646"/>
      <point x="183" y="649" type="curve" smooth="yes"/>
      <point x="209" y="650"/>
      <point x="249" y="650"/>
      <point x="292" y="650" type="curve" smooth="yes"/>
      <point x="349" y="650"/>
      <point x="417" y="649"/>
      <point x="456" y="648" type="curve"/>
      <point x="472" y="647"/>
      <point x="476" y="644"/>
      <point x="476" y="640" type="curve" smooth="yes"/>
      <point x="476" y="637"/>
      <point x="474" y="635"/>
      <point x="472" y="632" type="curve" smooth="yes"/>
      <point x="337" y="439"/>
      <point x="236" y="309"/>
      <point x="93" y="112" type="curve" smooth="yes"/>
      <point x="67" y="78"/>
      <point x="29" y="22"/>
      <point x="29" y="11" type="curve"/>
      <point x="29" y="11"/>
      <point x="30" y="-3"/>
      <point x="37" y="-3" type="curve" smooth="yes"/>
      <point x="117" y="-3" type="line" smooth="yes"/>
      <point x="157" y="-3"/>
      <point x="199" y="-2"/>
      <point x="241" y="-2" type="curve" smooth="yes"/>
      <point x="334" y="-2"/>
      <point x="437" y="-5"/>
    </contour>
  </outline>
</glyph>
<glyph name="asciicircum" format="1">
  <advance width="522"/>
  <unicode hex="005E"/>
  <outline>
    <contour>
      <point x="63" y="283" type="curve" smooth="yes"/>
      <point x="78" y="283"/>
      <point x="103" y="292"/>
      <point x="114" y="306" type="curve" smooth="yes"/>
      <point x="254" y="495" type="line"/>
      <point x="259" y="502"/>
      <point x="260" y="502"/>
      <point x="266" y="495" type="curve"/>
      <point x="408" y="306" type="line" smooth="yes"/>
      <point x="416" y="295"/>
      <point x="440" y="284"/>
      <point x="458" y="284" type="curve" smooth="yes"/>
      <point x="470" y="284"/>
      <point x="472" y="300"/>
      <point x="466" y="309" type="curve"/>
      <point x="263" y="603" type="line"/>
      <point x="259" y="603" type="line"/>
      <point x="56" y="309" type="line"/>
      <point x="53" y="305"/>
      <point x="52" y="301"/>
      <point x="52" y="297" type="curve" smooth="yes"/>
      <point x="52" y="289"/>
      <point x="57" y="283"/>
    </contour>
  </outline>
</glyph>
<glyph name="grave" format="1">
  <advance width="203"/>
  <unicode hex="0060"/>
  <outline>
    <contour>
      <point x="170" y="418" type="curve" smooth="yes"/>
      <point x="178" y="418"/>
      <point x="182" y="421"/>
      <point x="180" y="433" type="curve" smooth="yes"/>
      <point x="179" y="439"/>
      <point x="176" y="448"/>
      <point x="171" y="459" type="curve" smooth="yes"/>
      <point x="152" y="493"/>
      <point x="110" y="558"/>
      <point x="87" y="593" type="curve" smooth="yes"/>
      <point x="78" y="607"/>
      <point x="70" y="614"/>
      <point x="58" y="614" type="curve" smooth="yes"/>
      <point x="38" y="614"/>
      <point x="21" y="607"/>
      <point x="23" y="594" type="curve" smooth="yes"/>
      <point x="23" y="587"/>
      <point x="29" y="580"/>
      <point x="34" y="571" type="curve" smooth="yes"/>
      <point x="61" y="528"/>
      <point x="103" y="477"/>
      <point x="134" y="442" type="curve" smooth="yes"/>
      <point x="148" y="426"/>
      <point x="162" y="418"/>
    </contour>
  </outline>
</glyph>
<glyph name="a" format="1">
  <advance width="388"/>
  <unicode hex="0061"/>
  <outline>
    <contour>
      <point x="117" y="-14" type="curve" smooth="yes"/>
      <point x="159" y="-14"/>
      <point x="197" y="2"/>
      <point x="240" y="38" type="curve"/>
      <point x="243" y="38" type="line"/>
      <point x="260" y="3"/>
      <point x="283" y="-14"/>
      <point x="312" y="-14" type="curve" smooth="yes"/>
      <point x="332" y="-14"/>
      <point x="357" y="0"/>
      <point x="377" y="21" type="curve" smooth="yes"/>
      <point x="382" y="27"/>
      <point x="387" y="37"/>
      <point x="387" y="43" type="curve" smooth="yes"/>
      <point x="387" y="50"/>
      <point x="381" y="56"/>
      <point x="373" y="56" type="curve" smooth="yes"/>
      <point x="371" y="56"/>
      <point x="368" y="55"/>
      <point x="363" y="50" type="curve" smooth="yes"/>
      <point x="354" y="42"/>
      <point x="344" y="40"/>
      <point x="327" y="40" type="curve" smooth="yes"/>
      <point x="305" y="40"/>
      <point x="291" y="58"/>
      <point x="291" y="84" type="curve" smooth="yes"/>
      <point x="296" y="293" type="line" smooth="yes"/>
      <point x="298" y="342"/>
      <point x="264" y="379"/>
      <point x="219" y="379" type="curve" smooth="yes"/>
      <point x="182" y="379"/>
      <point x="122" y="350"/>
      <point x="79" y="309" type="curve" smooth="yes"/>
      <point x="56" y="287"/>
      <point x="42" y="261"/>
      <point x="42" y="240" type="curve" smooth="yes"/>
      <point x="42" y="235"/>
      <point x="45" y="231"/>
      <point x="51" y="231" type="curve" smooth="yes"/>
      <point x="68" y="231"/>
      <point x="107" y="256"/>
      <point x="107" y="266" type="curve" smooth="yes"/>
      <point x="107" y="271"/>
      <point x="106" y="279"/>
      <point x="106" y="281" type="curve" smooth="yes"/>
      <point x="106" y="292"/>
      <point x="108" y="301"/>
      <point x="117" y="306" type="curve" smooth="yes"/>
      <point x="131" y="316"/>
      <point x="154" y="322"/>
      <point x="175" y="322" type="curve" smooth="yes"/>
      <point x="216" y="322"/>
      <point x="239" y="299"/>
      <point x="238" y="269" type="curve" smooth="yes"/>
      <point x="236" y="226" type="line" smooth="yes"/>
      <point x="235" y="202"/>
      <point x="235" y="200"/>
      <point x="214" y="191" type="curve" smooth="yes"/>
      <point x="107" y="150" type="line" smooth="yes"/>
      <point x="59" y="132"/>
      <point x="38" y="109"/>
      <point x="38" y="68" type="curve" smooth="yes"/>
      <point x="38" y="31"/>
      <point x="82" y="-14"/>
    </contour>
    <contour>
      <point x="156" y="44" type="curve" smooth="yes"/>
      <point x="129" y="44"/>
      <point x="103" y="57"/>
      <point x="103" y="84" type="curve" smooth="yes"/>
      <point x="103" y="105"/>
      <point x="126" y="124"/>
      <point x="205" y="146" type="curve" smooth="yes"/>
      <point x="217" y="150"/>
      <point x="223" y="151"/>
      <point x="227" y="151" type="curve" smooth="yes"/>
      <point x="235" y="151"/>
      <point x="237" y="146"/>
      <point x="236" y="135" type="curve" smooth="yes"/>
      <point x="234" y="94" type="line" smooth="yes"/>
      <point x="233" y="76"/>
      <point x="228" y="69"/>
      <point x="219" y="63" type="curve" smooth="yes"/>
      <point x="204" y="52"/>
      <point x="183" y="44"/>
    </contour>
  </outline>
</glyph>
<glyph name="b" format="1">
  <advance width="508"/>
  <unicode hex="0062"/>
  <outline>
    <contour>
      <point x="250" y="-14" type="curve" smooth="yes"/>
      <point x="381" y="-14"/>
      <point x="471" y="72"/>
      <point x="471" y="198" type="curve" smooth="yes"/>
      <point x="471" y="300"/>
      <point x="392" y="379"/>
      <point x="291" y="379" type="curve" smooth="yes"/>
      <point x="247" y="379"/>
      <point x="185" y="356"/>
      <point x="141" y="325" type="curve"/>
      <point x="134" y="326"/>
      <point x="132" y="331"/>
      <point x="132" y="355" type="curve" smooth="yes"/>
      <point x="132" y="702" type="line" smooth="yes"/>
      <point x="132" y="758"/>
      <point x="135" y="802"/>
      <point x="135" y="807" type="curve" smooth="yes"/>
      <point x="135" y="811"/>
      <point x="133" y="814"/>
      <point x="130" y="814" type="curve" smooth="yes"/>
      <point x="128" y="814"/>
      <point x="126" y="813"/>
      <point x="122" y="811" type="curve" smooth="yes"/>
      <point x="110" y="805"/>
      <point x="53" y="782"/>
      <point x="30" y="777" type="curve" smooth="yes"/>
      <point x="23" y="775"/>
      <point x="17" y="771"/>
      <point x="17" y="763" type="curve" smooth="yes"/>
      <point x="17" y="755"/>
      <point x="24" y="748"/>
      <point x="30" y="745" type="curve" smooth="yes"/>
      <point x="60" y="731"/>
      <point x="75" y="714"/>
      <point x="75" y="672" type="curve" smooth="yes"/>
      <point x="75" y="81" type="line" smooth="yes"/>
      <point x="75" y="56"/>
      <point x="68" y="21"/>
      <point x="68" y="9" type="curve" smooth="yes"/>
      <point x="68" y="2"/>
      <point x="76" y="-3"/>
      <point x="82" y="-3" type="curve" smooth="yes"/>
      <point x="85" y="-3"/>
      <point x="88" y="-1"/>
      <point x="91" y="2" type="curve" smooth="yes"/>
      <point x="96" y="8"/>
      <point x="104" y="15"/>
      <point x="112" y="15" type="curve" smooth="yes"/>
      <point x="119" y="15"/>
      <point x="141" y="5"/>
      <point x="169" y="-2" type="curve" smooth="yes"/>
      <point x="193" y="-8"/>
      <point x="222" y="-14"/>
    </contour>
    <contour>
      <point x="279" y="27" type="curve" smooth="yes"/>
      <point x="204" y="27"/>
      <point x="132" y="65"/>
      <point x="132" y="123" type="curve" smooth="yes"/>
      <point x="132" y="286" type="line"/>
      <point x="163" y="308"/>
      <point x="206" y="324"/>
      <point x="263" y="324" type="curve" smooth="yes"/>
      <point x="364" y="324"/>
      <point x="410" y="241"/>
      <point x="410" y="176" type="curve" smooth="yes"/>
      <point x="410" y="92"/>
      <point x="360" y="27"/>
    </contour>
  </outline>
</glyph>
<glyph name="c" format="1">
  <advance width="411"/>
  <unicode hex="0063"/>
  <outline>
    <contour>
      <point x="216" y="-15" type="curve" smooth="yes"/>
      <point x="278" y="-15"/>
      <point x="328" y="8"/>
      <point x="359" y="46" type="curve" smooth="yes"/>
      <point x="370" y="60"/>
      <point x="376" y="74"/>
      <point x="376" y="82" type="curve" smooth="yes"/>
      <point x="376" y="90"/>
      <point x="372" y="95"/>
      <point x="365" y="95" type="curve" smooth="yes"/>
      <point x="362" y="95"/>
      <point x="357" y="93"/>
      <point x="354" y="90" type="curve" smooth="yes"/>
      <point x="321" y="60"/>
      <point x="295" y="48"/>
      <point x="254" y="48" type="curve" smooth="yes"/>
      <point x="164" y="48"/>
      <point x="93" y="108"/>
      <point x="93" y="191" type="curve" smooth="yes"/>
      <point x="93" y="274"/>
      <point x="140" y="334"/>
      <point x="209" y="334" type="curve" smooth="yes"/>
      <point x="237" y="334"/>
      <point x="277" y="310"/>
      <point x="306" y="289" type="curve" smooth="yes"/>
      <point x="316" y="283"/>
      <point x="324" y="277"/>
      <point x="332" y="277" type="curve" smooth="yes"/>
      <point x="350" y="277"/>
      <point x="377" y="302"/>
      <point x="377" y="321" type="curve" smooth="yes"/>
      <point x="377" y="332"/>
      <point x="371" y="338"/>
      <point x="363" y="344" type="curve" smooth="yes"/>
      <point x="330" y="367"/>
      <point x="291" y="379"/>
      <point x="248" y="379" type="curve" smooth="yes"/>
      <point x="124" y="379"/>
      <point x="37" y="285"/>
      <point x="37" y="164" type="curve" smooth="yes"/>
      <point x="37" y="62"/>
      <point x="114" y="-15"/>
    </contour>
  </outline>
</glyph>
<glyph name="d" format="1">
  <advance width="502"/>
  <unicode hex="0064"/>
  <outline>
    <contour>
      <point x="365" y="-19" type="curve" smooth="yes"/>
      <point x="368" y="-19"/>
      <point x="370" y="-19"/>
      <point x="380" y="-13" type="curve" smooth="yes"/>
      <point x="422" y="7"/>
      <point x="453" y="16"/>
      <point x="483" y="20" type="curve" smooth="yes"/>
      <point x="493" y="21"/>
      <point x="500" y="33"/>
      <point x="500" y="45" type="curve" smooth="yes"/>
      <point x="500" y="55"/>
      <point x="492" y="59"/>
      <point x="479" y="58" type="curve" smooth="yes"/>
      <point x="462" y="57"/>
      <point x="446" y="54"/>
      <point x="438" y="54" type="curve" smooth="yes"/>
      <point x="423" y="54"/>
      <point x="417" y="78"/>
      <point x="417" y="118" type="curve" smooth="yes"/>
      <point x="417" y="671" type="line" smooth="yes"/>
      <point x="417" y="761"/>
      <point x="424" y="795"/>
      <point x="423" y="807" type="curve"/>
      <point x="422" y="811"/>
      <point x="421" y="813"/>
      <point x="417" y="813" type="curve" smooth="yes"/>
      <point x="414" y="813"/>
      <point x="410" y="812"/>
      <point x="405" y="810" type="curve" smooth="yes"/>
      <point x="387" y="802"/>
      <point x="360" y="792"/>
      <point x="311" y="777" type="curve" smooth="yes"/>
      <point x="303" y="775"/>
      <point x="300" y="769"/>
      <point x="300" y="761" type="curve" smooth="yes"/>
      <point x="300" y="755"/>
      <point x="304" y="747"/>
      <point x="311" y="745" type="curve" smooth="yes"/>
      <point x="344" y="736"/>
      <point x="360" y="724"/>
      <point x="360" y="670" type="curve" smooth="yes"/>
      <point x="360" y="384" type="line" smooth="yes"/>
      <point x="360" y="367"/>
      <point x="356" y="362"/>
      <point x="353" y="362" type="curve" smooth="yes"/>
      <point x="350" y="362"/>
      <point x="346" y="362"/>
      <point x="340" y="364" type="curve" smooth="yes"/>
      <point x="323" y="372"/>
      <point x="292" y="379"/>
      <point x="263" y="379" type="curve" smooth="yes"/>
      <point x="124" y="379"/>
      <point x="37" y="286"/>
      <point x="37" y="173" type="curve" smooth="yes"/>
      <point x="37" y="80"/>
      <point x="109" y="-14"/>
      <point x="226" y="-14" type="curve" smooth="yes"/>
      <point x="293" y="-14"/>
      <point x="339" y="27"/>
      <point x="359" y="55" type="curve"/>
      <point x="359" y="45" type="line" smooth="yes"/>
      <point x="359" y="30"/>
      <point x="354" y="2"/>
      <point x="354" y="-10" type="curve" smooth="yes"/>
      <point x="354" y="-13"/>
      <point x="362" y="-19"/>
    </contour>
    <contour>
      <point x="257" y="47" type="curve" smooth="yes"/>
      <point x="210" y="47"/>
      <point x="96" y="68"/>
      <point x="96" y="195" type="curve" smooth="yes"/>
      <point x="96" y="307"/>
      <point x="179" y="335"/>
      <point x="229" y="335" type="curve" smooth="yes"/>
      <point x="321" y="335"/>
      <point x="361" y="291"/>
      <point x="360" y="242" type="curve" smooth="yes"/>
      <point x="359" y="89" type="line"/>
      <point x="333" y="64"/>
      <point x="295" y="47"/>
    </contour>
  </outline>
</glyph>
<glyph name="f" format="1">
  <advance width="317"/>
  <unicode hex="0066"/>
  <outline>
    <contour>
      <point x="45" y="-3" type="curve" smooth="yes"/>
      <point x="83" y="-3"/>
      <point x="89" y="2"/>
      <point x="123" y="2" type="curve" smooth="yes"/>
      <point x="157" y="2"/>
      <point x="183" y="-3"/>
      <point x="221" y="-3" type="curve" smooth="yes"/>
      <point x="232" y="-3"/>
      <point x="241" y="0"/>
      <point x="241" y="10" type="curve" smooth="yes"/>
      <point x="241" y="23"/>
      <point x="231" y="28"/>
      <point x="217" y="31" type="curve" smooth="yes"/>
      <point x="172" y="40"/>
      <point x="150" y="48"/>
      <point x="150" y="80" type="curve" smooth="yes"/>
      <point x="150" y="295" type="line" smooth="yes"/>
      <point x="150" y="303"/>
      <point x="153" y="308"/>
      <point x="169" y="308" type="curve" smooth="yes"/>
      <point x="276" y="308" type="line" smooth="yes"/>
      <point x="284" y="308"/>
      <point x="291" y="311"/>
      <point x="294" y="318" type="curve" smooth="yes"/>
      <point x="298" y="326"/>
      <point x="303" y="345"/>
      <point x="303" y="354" type="curve" smooth="yes"/>
      <point x="303" y="360"/>
      <point x="297" y="365"/>
      <point x="290" y="365" type="curve" smooth="yes"/>
      <point x="161" y="365" type="line" smooth="yes"/>
      <point x="155" y="365"/>
      <point x="150" y="367"/>
      <point x="150" y="375" type="curve" smooth="yes"/>
      <point x="150" y="569" type="line" smooth="yes"/>
      <point x="150" y="703"/>
      <point x="197" y="766"/>
      <point x="263" y="766" type="curve" smooth="yes"/>
      <point x="310" y="766"/>
      <point x="332" y="748"/>
      <point x="350" y="732" type="curve" smooth="yes"/>
      <point x="364" y="720"/>
      <point x="374" y="710"/>
      <point x="386" y="710" type="curve" smooth="yes"/>
      <point x="406" y="710"/>
      <point x="424" y="723"/>
      <point x="424" y="748" type="curve" smooth="yes"/>
      <point x="424" y="786"/>
      <point x="386" y="815"/>
      <point x="314" y="815" type="curve" smooth="yes"/>
      <point x="218" y="815"/>
      <point x="93" y="754"/>
      <point x="93" y="531" type="curve" smooth="yes"/>
      <point x="93" y="371" type="line"/>
      <point x="72" y="361"/>
      <point x="57" y="350"/>
      <point x="34" y="337" type="curve" smooth="yes"/>
      <point x="30" y="333"/>
      <point x="25" y="329"/>
      <point x="25" y="325" type="curve" smooth="yes"/>
      <point x="25" y="318"/>
      <point x="35" y="308"/>
      <point x="40" y="308" type="curve"/>
      <point x="62" y="306"/>
      <point x="79" y="306"/>
      <point x="93" y="306" type="curve"/>
      <point x="93" y="80" type="line" smooth="yes"/>
      <point x="93" y="48"/>
      <point x="77" y="39"/>
      <point x="49" y="31" type="curve" smooth="yes"/>
      <point x="35" y="28"/>
      <point x="25" y="23"/>
      <point x="25" y="10" type="curve" smooth="yes"/>
      <point x="25" y="0"/>
      <point x="34" y="-3"/>
    </contour>
  </outline>
</glyph>
<glyph name="h" format="1">
  <advance width="512"/>
  <unicode hex="0068"/>
  <outline>
    <contour>
      <point x="40" y="-3" type="curve" smooth="yes"/>
      <point x="77" y="-3"/>
      <point x="83" y="4"/>
      <point x="115" y="4" type="curve" smooth="yes"/>
      <point x="148" y="4"/>
      <point x="150" y="-3"/>
      <point x="187" y="-3" type="curve" smooth="yes"/>
      <point x="202" y="-3"/>
      <point x="208" y="1"/>
      <point x="208" y="11" type="curve" smooth="yes"/>
      <point x="208" y="22"/>
      <point x="200" y="27"/>
      <point x="185" y="33" type="curve" smooth="yes"/>
      <point x="165" y="39"/>
      <point x="144" y="47"/>
      <point x="144" y="78" type="curve" smooth="yes"/>
      <point x="144" y="229" type="line" smooth="yes"/>
      <point x="144" y="265"/>
      <point x="150" y="277"/>
      <point x="171" y="292" type="curve" smooth="yes"/>
      <point x="192" y="307"/>
      <point x="235" y="314"/>
      <point x="265" y="314" type="curve" smooth="yes"/>
      <point x="316" y="314"/>
      <point x="366" y="278"/>
      <point x="366" y="224" type="curve" smooth="yes"/>
      <point x="366" y="79" type="line" smooth="yes"/>
      <point x="366" y="48"/>
      <point x="344" y="40"/>
      <point x="324" y="33" type="curve" smooth="yes"/>
      <point x="309" y="27"/>
      <point x="300" y="22"/>
      <point x="300" y="10" type="curve" smooth="yes"/>
      <point x="300" y="0"/>
      <point x="309" y="-3"/>
      <point x="321" y="-3" type="curve" smooth="yes"/>
      <point x="358" y="-3"/>
      <point x="362" y="4"/>
      <point x="395" y="4" type="curve" smooth="yes"/>
      <point x="427" y="4"/>
      <point x="430" y="-3"/>
      <point x="468" y="-3" type="curve" smooth="yes"/>
      <point x="480" y="-3"/>
      <point x="488" y="0"/>
      <point x="488" y="10" type="curve" smooth="yes"/>
      <point x="488" y="22"/>
      <point x="478" y="27"/>
      <point x="465" y="33" type="curve" smooth="yes"/>
      <point x="445" y="41"/>
      <point x="423" y="48"/>
      <point x="423" y="79" type="curve" smooth="yes"/>
      <point x="423" y="243" type="line" smooth="yes"/>
      <point x="423" y="321"/>
      <point x="373" y="379"/>
      <point x="307" y="379" type="curve" smooth="yes"/>
      <point x="232" y="379"/>
      <point x="164" y="324"/>
      <point x="137" y="306" type="curve"/>
      <point x="157" y="306" type="line"/>
      <point x="147" y="322"/>
      <point x="144" y="325"/>
      <point x="144" y="353" type="curve" smooth="yes"/>
      <point x="144" y="671" type="line" smooth="yes"/>
      <point x="144" y="778"/>
      <point x="153" y="795"/>
      <point x="153" y="807" type="curve" smooth="yes"/>
      <point x="153" y="811"/>
      <point x="150" y="814"/>
      <point x="146" y="814" type="curve" smooth="yes"/>
      <point x="144" y="814"/>
      <point x="142" y="813"/>
      <point x="140" y="812" type="curve" smooth="yes"/>
      <point x="112" y="798"/>
      <point x="66" y="785"/>
      <point x="45" y="777" type="curve" smooth="yes"/>
      <point x="35" y="774"/>
      <point x="33" y="769"/>
      <point x="33" y="762" type="curve" smooth="yes"/>
      <point x="33" y="751"/>
      <point x="36" y="745"/>
      <point x="45" y="743" type="curve" smooth="yes"/>
      <point x="77" y="737"/>
      <point x="87" y="709"/>
      <point x="87" y="675" type="curve" smooth="yes"/>
      <point x="87" y="78" type="line" smooth="yes"/>
      <point x="87" y="47"/>
      <point x="64" y="39"/>
      <point x="43" y="33" type="curve" smooth="yes"/>
      <point x="26" y="27"/>
      <point x="20" y="23"/>
      <point x="20" y="11" type="curve" smooth="yes"/>
      <point x="20" y="1"/>
      <point x="28" y="-3"/>
    </contour>
  </outline>
</glyph>
<glyph name="i" format="1">
  <advance width="236"/>
  <unicode hex="0069"/>
  <outline>
    <contour>
      <point x="44" y="-3" type="curve" smooth="yes"/>
      <point x="81" y="-3"/>
      <point x="87" y="2"/>
      <point x="121" y="2" type="curve" smooth="yes"/>
      <point x="154" y="4"/>
      <point x="161" y="-3"/>
      <point x="197" y="-3" type="curve" smooth="yes"/>
      <point x="209" y="-3"/>
      <point x="216" y="1"/>
      <point x="216" y="11" type="curve" smooth="yes"/>
      <point x="216" y="24"/>
      <point x="204" y="28"/>
      <point x="193" y="32" type="curve" smooth="yes"/>
      <point x="166" y="40"/>
      <point x="149" y="50"/>
      <point x="149" y="76" type="curve" smooth="yes"/>
      <point x="149" y="255" type="line" smooth="yes"/>
      <point x="149" y="299"/>
      <point x="158" y="369"/>
      <point x="158" y="386" type="curve" smooth="yes"/>
      <point x="158" y="390"/>
      <point x="155" y="394"/>
      <point x="150" y="394" type="curve" smooth="yes"/>
      <point x="145" y="394"/>
      <point x="139" y="390"/>
      <point x="135" y="386" type="curve" smooth="yes"/>
      <point x="119" y="372"/>
      <point x="94" y="351"/>
      <point x="46" y="340" type="curve" smooth="yes"/>
      <point x="40" y="339"/>
      <point x="36" y="333"/>
      <point x="36" y="326" type="curve" smooth="yes"/>
      <point x="36" y="317"/>
      <point x="40" y="311"/>
      <point x="48" y="309" type="curve" smooth="yes"/>
      <point x="82" y="304"/>
      <point x="92" y="273"/>
      <point x="92" y="234" type="curve" smooth="yes"/>
      <point x="92" y="76" type="line" smooth="yes"/>
      <point x="92" y="48"/>
      <point x="76" y="40"/>
      <point x="48" y="32" type="curve" smooth="yes"/>
      <point x="37" y="28"/>
      <point x="25" y="24"/>
      <point x="25" y="11" type="curve" smooth="yes"/>
      <point x="25" y="1"/>
      <point x="33" y="-3"/>
    </contour>
    <contour>
      <point x="119" y="482" type="curve" smooth="yes"/>
      <point x="146" y="482"/>
      <point x="165" y="501"/>
      <point x="165" y="526" type="curve" smooth="yes"/>
      <point x="165" y="553"/>
      <point x="146" y="572"/>
      <point x="119" y="572" type="curve" smooth="yes"/>
      <point x="94" y="572"/>
      <point x="75" y="553"/>
      <point x="75" y="526" type="curve" smooth="yes"/>
      <point x="75" y="501"/>
      <point x="94" y="482"/>
    </contour>
  </outline>
</glyph>
<glyph name="j" format="1">
  <advance width="215"/>
  <unicode hex="006A"/>
  <outline>
    <contour>
      <point x="4" y="-351" type="curve" smooth="yes"/>
      <point x="38" y="-351"/>
      <point x="95" y="-284"/>
      <point x="119" y="-216" type="curve" smooth="yes"/>
      <point x="145" y="-136"/>
      <point x="146" y="-35"/>
      <point x="146" y="27" type="curve" smooth="yes"/>
      <point x="146" y="235" type="line" smooth="yes"/>
      <point x="146" y="280"/>
      <point x="149" y="348"/>
      <point x="153" y="389" type="curve"/>
      <point x="153" y="392"/>
      <point x="150" y="394"/>
      <point x="146" y="394" type="curve" smooth="yes"/>
      <point x="144" y="394"/>
      <point x="141" y="392"/>
      <point x="134" y="388" type="curve" smooth="yes"/>
      <point x="117" y="376"/>
      <point x="86" y="350"/>
      <point x="44" y="340" type="curve" smooth="yes"/>
      <point x="37" y="339"/>
      <point x="34" y="331"/>
      <point x="34" y="326" type="curve" smooth="yes"/>
      <point x="34" y="318"/>
      <point x="38" y="311"/>
      <point x="44" y="310" type="curve" smooth="yes"/>
      <point x="79" y="301"/>
      <point x="89" y="275"/>
      <point x="89" y="238" type="curve" smooth="yes"/>
      <point x="89" y="8" type="line" smooth="yes"/>
      <point x="89" y="-60"/>
      <point x="86" y="-191"/>
      <point x="57" y="-251" type="curve" smooth="yes"/>
      <point x="38" y="-290"/>
      <point x="15" y="-306"/>
      <point x="-5" y="-311" type="curve"/>
      <point x="-10" y="-313"/>
      <point x="-21" y="-323"/>
      <point x="-21" y="-334" type="curve" smooth="yes"/>
      <point x="-21" y="-345"/>
      <point x="-6" y="-351"/>
    </contour>
    <contour>
      <point x="111" y="482" type="curve" smooth="yes"/>
      <point x="138" y="482"/>
      <point x="157" y="501"/>
      <point x="157" y="526" type="curve" smooth="yes"/>
      <point x="157" y="553"/>
      <point x="138" y="572"/>
      <point x="111" y="572" type="curve" smooth="yes"/>
      <point x="86" y="572"/>
      <point x="67" y="553"/>
      <point x="67" y="526" type="curve" smooth="yes"/>
      <point x="67" y="501"/>
      <point x="86" y="482"/>
    </contour>
  </outline>
</glyph>
<glyph name="m" format="1">
  <advance width="770"/>
  <unicode hex="006D"/>
  <outline>
    <contour>
      <point x="45" y="-3" type="curve" smooth="yes"/>
      <point x="83" y="-3"/>
      <point x="87" y="2"/>
      <point x="121" y="2" type="curve" smooth="yes"/>
      <point x="154" y="2"/>
      <point x="158" y="-3"/>
      <point x="196" y="-3" type="curve" smooth="yes"/>
      <point x="208" y="-3"/>
      <point x="216" y="1"/>
      <point x="216" y="11" type="curve" smooth="yes"/>
      <point x="216" y="24"/>
      <point x="204" y="28"/>
      <point x="192" y="32" type="curve" smooth="yes"/>
      <point x="171" y="38"/>
      <point x="149" y="45"/>
      <point x="149" y="76" type="curve" smooth="yes"/>
      <point x="149" y="230" type="line" smooth="yes"/>
      <point x="149" y="261"/>
      <point x="157" y="281"/>
      <point x="178" y="294" type="curve" smooth="yes"/>
      <point x="205" y="311"/>
      <point x="235" y="317"/>
      <point x="271" y="317" type="curve" smooth="yes"/>
      <point x="317" y="317"/>
      <point x="357" y="276"/>
      <point x="357" y="234" type="curve" smooth="yes"/>
      <point x="357" y="76" type="line" smooth="yes"/>
      <point x="357" y="44"/>
      <point x="332" y="39"/>
      <point x="312" y="32" type="curve" smooth="yes"/>
      <point x="300" y="28"/>
      <point x="289" y="24"/>
      <point x="289" y="11" type="curve" smooth="yes"/>
      <point x="289" y="1"/>
      <point x="297" y="-3"/>
      <point x="308" y="-3" type="curve" smooth="yes"/>
      <point x="345" y="-3"/>
      <point x="353" y="2"/>
      <point x="386" y="2" type="curve" smooth="yes"/>
      <point x="419" y="2"/>
      <point x="426" y="-3"/>
      <point x="464" y="-3" type="curve" smooth="yes"/>
      <point x="476" y="-3"/>
      <point x="483" y="1"/>
      <point x="483" y="11" type="curve" smooth="yes"/>
      <point x="483" y="23"/>
      <point x="473" y="29"/>
      <point x="459" y="32" type="curve" smooth="yes"/>
      <point x="439" y="38"/>
      <point x="414" y="44"/>
      <point x="414" y="76" type="curve" smooth="yes"/>
      <point x="414" y="230" type="line" smooth="yes"/>
      <point x="414" y="261"/>
      <point x="424" y="281"/>
      <point x="444" y="294" type="curve" smooth="yes"/>
      <point x="470" y="311"/>
      <point x="500" y="317"/>
      <point x="536" y="317" type="curve" smooth="yes"/>
      <point x="582" y="317"/>
      <point x="622" y="276"/>
      <point x="622" y="234" type="curve" smooth="yes"/>
      <point x="622" y="76" type="line" smooth="yes"/>
      <point x="622" y="46"/>
      <point x="599" y="38"/>
      <point x="578" y="32" type="curve" smooth="yes"/>
      <point x="565" y="28"/>
      <point x="555" y="24"/>
      <point x="555" y="11" type="curve" smooth="yes"/>
      <point x="555" y="1"/>
      <point x="562" y="-3"/>
      <point x="573" y="-3" type="curve" smooth="yes"/>
      <point x="611" y="-3"/>
      <point x="619" y="2"/>
      <point x="652" y="2" type="curve" smooth="yes"/>
      <point x="685" y="2"/>
      <point x="689" y="-3"/>
      <point x="727" y="-3" type="curve" smooth="yes"/>
      <point x="741" y="-3"/>
      <point x="746" y="1"/>
      <point x="746" y="11" type="curve" smooth="yes"/>
      <point x="746" y="23"/>
      <point x="736" y="27"/>
      <point x="722" y="32" type="curve" smooth="yes"/>
      <point x="702" y="40"/>
      <point x="679" y="46"/>
      <point x="679" y="76" type="curve" smooth="yes"/>
      <point x="679" y="240" type="line" smooth="yes"/>
      <point x="679" y="310"/>
      <point x="644" y="379"/>
      <point x="578" y="379" type="curve" smooth="yes"/>
      <point x="513" y="379"/>
      <point x="458" y="348"/>
      <point x="415" y="310" type="curve"/>
      <point x="412" y="310" type="line"/>
      <point x="391" y="361"/>
      <point x="360" y="379"/>
      <point x="312" y="379" type="curve" smooth="yes"/>
      <point x="235" y="379"/>
      <point x="186" y="341"/>
      <point x="156" y="312" type="curve"/>
      <point x="154" y="312" type="line"/>
      <point x="153" y="313"/>
      <point x="152" y="318"/>
      <point x="152" y="324" type="curve" smooth="yes"/>
      <point x="152" y="343"/>
      <point x="157" y="376"/>
      <point x="157" y="385" type="curve" smooth="yes"/>
      <point x="157" y="390"/>
      <point x="153" y="395"/>
      <point x="149" y="395" type="curve" smooth="yes"/>
      <point x="144" y="395"/>
      <point x="139" y="391"/>
      <point x="135" y="388" type="curve" smooth="yes"/>
      <point x="109" y="370"/>
      <point x="94" y="354"/>
      <point x="56" y="344" type="curve" smooth="yes"/>
      <point x="48" y="341"/>
      <point x="44" y="335"/>
      <point x="44" y="327" type="curve" smooth="yes"/>
      <point x="44" y="319"/>
      <point x="47" y="313"/>
      <point x="55" y="312" type="curve" smooth="yes"/>
      <point x="87" y="305"/>
      <point x="92" y="276"/>
      <point x="92" y="237" type="curve" smooth="yes"/>
      <point x="92" y="76" type="line" smooth="yes"/>
      <point x="92" y="45"/>
      <point x="69" y="38"/>
      <point x="50" y="32" type="curve" smooth="yes"/>
      <point x="36" y="28"/>
      <point x="25" y="23"/>
      <point x="25" y="11" type="curve" smooth="yes"/>
      <point x="25" y="-1"/>
      <point x="35" y="-3"/>
    </contour>
  </outline>
</glyph>
<glyph name="n" format="1">
  <advance width="525"/>
  <unicode hex="006E"/>
  <outline>
    <contour>
      <point x="44" y="-3" type="curve" smooth="yes"/>
      <point x="82" y="-3"/>
      <point x="87" y="4"/>
      <point x="121" y="4" type="curve" smooth="yes"/>
      <point x="154" y="4"/>
      <point x="159" y="-3"/>
      <point x="197" y="-3" type="curve" smooth="yes"/>
      <point x="209" y="-3"/>
      <point x="216" y="1"/>
      <point x="216" y="11" type="curve" smooth="yes"/>
      <point x="216" y="22"/>
      <point x="209" y="27"/>
      <point x="193" y="33" type="curve" smooth="yes"/>
      <point x="172" y="38"/>
      <point x="149" y="45"/>
      <point x="149" y="76" type="curve" smooth="yes"/>
      <point x="149" y="253" type="line" smooth="yes"/>
      <point x="149" y="261"/>
      <point x="152" y="271"/>
      <point x="158" y="276" type="curve" smooth="yes"/>
      <point x="187" y="301"/>
      <point x="226" y="317"/>
      <point x="279" y="317" type="curve" smooth="yes"/>
      <point x="337" y="316"/>
      <point x="377" y="280"/>
      <point x="377" y="222" type="curve" smooth="yes"/>
      <point x="377" y="76" type="line" smooth="yes"/>
      <point x="377" y="45"/>
      <point x="353" y="39"/>
      <point x="333" y="33" type="curve" smooth="yes"/>
      <point x="322" y="27"/>
      <point x="310" y="22"/>
      <point x="310" y="9" type="curve" smooth="yes"/>
      <point x="310" y="-2"/>
      <point x="322" y="-3"/>
      <point x="329" y="-3" type="curve" smooth="yes"/>
      <point x="366" y="-3"/>
      <point x="373" y="4"/>
      <point x="406" y="4" type="curve" smooth="yes"/>
      <point x="439" y="4"/>
      <point x="444" y="-3"/>
      <point x="482" y="-3" type="curve" smooth="yes"/>
      <point x="490" y="-3"/>
      <point x="501" y="-2"/>
      <point x="501" y="9" type="curve" smooth="yes"/>
      <point x="501" y="22"/>
      <point x="489" y="27"/>
      <point x="477" y="33" type="curve"/>
      <point x="457" y="39"/>
      <point x="434" y="45"/>
      <point x="434" y="76" type="curve" smooth="yes"/>
      <point x="434" y="225" type="line" smooth="yes"/>
      <point x="434" y="312"/>
      <point x="385" y="379"/>
      <point x="318" y="379" type="curve" smooth="yes"/>
      <point x="254" y="379"/>
      <point x="202" y="357"/>
      <point x="154" y="311" type="curve"/>
      <point x="153" y="311"/>
      <point x="152" y="320"/>
      <point x="152" y="328" type="curve" smooth="yes"/>
      <point x="152" y="346"/>
      <point x="157" y="376"/>
      <point x="157" y="386" type="curve" smooth="yes"/>
      <point x="157" y="390"/>
      <point x="155" y="394"/>
      <point x="152" y="394" type="curve" smooth="yes"/>
      <point x="148" y="394"/>
      <point x="146" y="392"/>
      <point x="143" y="390" type="curve" smooth="yes"/>
      <point x="118" y="373"/>
      <point x="93" y="358"/>
      <point x="55" y="346" type="curve" smooth="yes"/>
      <point x="47" y="344"/>
      <point x="43" y="339"/>
      <point x="43" y="330" type="curve" smooth="yes"/>
      <point x="43" y="320"/>
      <point x="48" y="315"/>
      <point x="56" y="313" type="curve" smooth="yes"/>
      <point x="86" y="304"/>
      <point x="92" y="275"/>
      <point x="92" y="244" type="curve" smooth="yes"/>
      <point x="92" y="76" type="line" smooth="yes"/>
      <point x="92" y="45"/>
      <point x="69" y="38"/>
      <point x="48" y="33" type="curve" smooth="yes"/>
      <point x="33" y="27"/>
      <point x="25" y="25"/>
      <point x="25" y="11" type="curve" smooth="yes"/>
      <point x="25" y="1"/>
      <point x="33" y="-3"/>
    </contour>
  </outline>
</glyph>
<glyph name="o" format="1">
  <advance width="485"/>
  <unicode hex="006F"/>
  <outline>
    <contour>
      <point x="229" y="-14" type="curve" smooth="yes"/>
      <point x="361" y="-14"/>
      <point x="449" y="67"/>
      <point x="449" y="194" type="curve" smooth="yes"/>
      <point x="449" y="296"/>
      <point x="359" y="379"/>
      <point x="249" y="379" type="curve" smooth="yes"/>
      <point x="134" y="379"/>
      <point x="37" y="285"/>
      <point x="37" y="171" type="curve" smooth="yes"/>
      <point x="37" y="65"/>
      <point x="119" y="-14"/>
    </contour>
    <contour>
      <point x="251" y="28" type="curve" smooth="yes"/>
      <point x="169" y="28"/>
      <point x="103" y="101"/>
      <point x="103" y="191" type="curve" smooth="yes"/>
      <point x="103" y="288"/>
      <point x="145" y="336"/>
      <point x="231" y="336" type="curve" smooth="yes"/>
      <point x="315" y="336"/>
      <point x="382" y="263"/>
      <point x="382" y="173" type="curve" smooth="yes"/>
      <point x="382" y="72"/>
      <point x="343" y="28"/>
    </contour>
  </outline>
</glyph>
<glyph name="p" format="1">
  <advance width="513"/>
  <unicode hex="0070"/>
  <outline>
    <contour>
      <point x="40" y="-345" type="curve" smooth="yes"/>
      <point x="77" y="-345"/>
      <point x="83" y="-340"/>
      <point x="116" y="-340" type="curve" smooth="yes"/>
      <point x="150" y="-340"/>
      <point x="168" y="-345"/>
      <point x="205" y="-345" type="curve" smooth="yes"/>
      <point x="215" y="-345"/>
      <point x="226" y="-341"/>
      <point x="226" y="-330" type="curve" smooth="yes"/>
      <point x="226" y="-321"/>
      <point x="216" y="-315"/>
      <point x="202" y="-311" type="curve"/>
      <point x="182" y="-305"/>
      <point x="144" y="-299"/>
      <point x="144" y="-268" type="curve" smooth="yes"/>
      <point x="144" y="-31" type="line" smooth="yes"/>
      <point x="144" y="-26"/>
      <point x="145" y="20"/>
      <point x="148" y="20" type="curve"/>
      <point x="168" y="1"/>
      <point x="221" y="-14"/>
      <point x="249" y="-14" type="curve" smooth="yes"/>
      <point x="383" y="-14"/>
      <point x="477" y="92"/>
      <point x="477" y="206" type="curve" smooth="yes"/>
      <point x="477" y="292"/>
      <point x="415" y="379"/>
      <point x="311" y="379" type="curve" smooth="yes"/>
      <point x="247" y="379"/>
      <point x="166" y="336"/>
      <point x="147" y="318" type="curve"/>
      <point x="146" y="319"/>
      <point x="146" y="323"/>
      <point x="146" y="327" type="curve" smooth="yes"/>
      <point x="146" y="343"/>
      <point x="151" y="372"/>
      <point x="151" y="383" type="curve" smooth="yes"/>
      <point x="151" y="386"/>
      <point x="148" y="391"/>
      <point x="145" y="391" type="curve" smooth="yes"/>
      <point x="144" y="391"/>
      <point x="144" y="390"/>
      <point x="143" y="390" type="curve"/>
      <point x="115" y="378"/>
      <point x="85" y="366"/>
      <point x="43" y="354" type="curve" smooth="yes"/>
      <point x="37" y="353"/>
      <point x="32" y="346"/>
      <point x="32" y="338" type="curve" smooth="yes"/>
      <point x="32" y="330"/>
      <point x="38" y="323"/>
      <point x="45" y="321" type="curve" smooth="yes"/>
      <point x="75" y="314"/>
      <point x="87" y="267"/>
      <point x="87" y="252" type="curve" smooth="yes"/>
      <point x="87" y="-268" type="line" smooth="yes"/>
      <point x="87" y="-296"/>
      <point x="64" y="-304"/>
      <point x="43" y="-311" type="curve"/>
      <point x="31" y="-315"/>
      <point x="20" y="-320"/>
      <point x="20" y="-330" type="curve" smooth="yes"/>
      <point x="20" y="-341"/>
      <point x="30" y="-345"/>
    </contour>
    <contour>
      <point x="272" y="25" type="curve" smooth="yes"/>
      <point x="202" y="25"/>
      <point x="144" y="72"/>
      <point x="144" y="151" type="curve" smooth="yes"/>
      <point x="144" y="171"/>
      <point x="147" y="230"/>
      <point x="147" y="279" type="curve" smooth="yes"/>
      <point x="147" y="292"/>
      <point x="212" y="323"/>
      <point x="266" y="323" type="curve" smooth="yes"/>
      <point x="327" y="323"/>
      <point x="412" y="299"/>
      <point x="412" y="174" type="curve" smooth="yes"/>
      <point x="412" y="63"/>
      <point x="318" y="25"/>
    </contour>
  </outline>
</glyph>
<glyph name="q" format="1">
  <advance width="516"/>
  <unicode hex="0071"/>
  <outline>
    <contour>
      <point x="335" y="-345" type="curve" smooth="yes"/>
      <point x="373" y="-345"/>
      <point x="379" y="-340"/>
      <point x="412" y="-340" type="curve" smooth="yes"/>
      <point x="446" y="-340"/>
      <point x="459" y="-345"/>
      <point x="497" y="-345" type="curve" smooth="yes"/>
      <point x="505" y="-345"/>
      <point x="516" y="-343"/>
      <point x="516" y="-332" type="curve" smooth="yes"/>
      <point x="516" y="-321"/>
      <point x="505" y="-315"/>
      <point x="493" y="-310" type="curve"/>
      <point x="472" y="-302"/>
      <point x="440" y="-299"/>
      <point x="440" y="-266" type="curve" smooth="yes"/>
      <point x="440" y="270" type="line" smooth="yes"/>
      <point x="440" y="322"/>
      <point x="453" y="364"/>
      <point x="453" y="376" type="curve" smooth="yes"/>
      <point x="453" y="381"/>
      <point x="439" y="386"/>
      <point x="431" y="386" type="curve" smooth="yes"/>
      <point x="427" y="386"/>
      <point x="424" y="383"/>
      <point x="422" y="380" type="curve"/>
      <point x="416" y="368"/>
      <point x="411" y="357"/>
      <point x="398" y="357" type="curve" smooth="yes"/>
      <point x="393" y="357"/>
      <point x="342" y="379"/>
      <point x="278" y="379" type="curve" smooth="yes"/>
      <point x="134" y="379"/>
      <point x="37" y="294"/>
      <point x="37" y="165" type="curve" smooth="yes"/>
      <point x="37" y="50"/>
      <point x="133" y="-14"/>
      <point x="239" y="-14" type="curve" smooth="yes"/>
      <point x="293" y="-14"/>
      <point x="348" y="22"/>
      <point x="368" y="39" type="curve" smooth="yes"/>
      <point x="371" y="41"/>
      <point x="374" y="40"/>
      <point x="377" y="40" type="curve" smooth="yes"/>
      <point x="381" y="40"/>
      <point x="384" y="34"/>
      <point x="384" y="13" type="curve" smooth="yes"/>
      <point x="384" y="-265" type="line" smooth="yes"/>
      <point x="384" y="-294"/>
      <point x="363" y="-300"/>
      <point x="340" y="-310" type="curve"/>
      <point x="329" y="-315"/>
      <point x="316" y="-319"/>
      <point x="316" y="-333" type="curve" smooth="yes"/>
      <point x="316" y="-343"/>
      <point x="328" y="-345"/>
    </contour>
    <contour>
      <point x="270" y="48" type="curve" smooth="yes"/>
      <point x="203" y="48"/>
      <point x="103" y="75"/>
      <point x="103" y="185" type="curve" smooth="yes"/>
      <point x="103" y="277"/>
      <point x="176" y="328"/>
      <point x="254" y="328" type="curve" smooth="yes"/>
      <point x="337" y="328"/>
      <point x="381" y="287"/>
      <point x="383" y="240" type="curve" smooth="yes"/>
      <point x="384" y="220"/>
      <point x="384" y="111"/>
      <point x="384" y="82" type="curve"/>
      <point x="366" y="66"/>
      <point x="318" y="48"/>
    </contour>
  </outline>
</glyph>
<glyph name="s" format="1">
  <advance width="334"/>
  <unicode hex="0073"/>
  <outline>
    <contour>
      <point x="148" y="-14" type="curve" smooth="yes"/>
      <point x="237" y="-14"/>
      <point x="303" y="31"/>
      <point x="303" y="97" type="curve" smooth="yes"/>
      <point x="303" y="146"/>
      <point x="267" y="176"/>
      <point x="183" y="217" type="curve" smooth="yes"/>
      <point x="121" y="250"/>
      <point x="105" y="264"/>
      <point x="105" y="292" type="curve" smooth="yes"/>
      <point x="105" y="324"/>
      <point x="141" y="341"/>
      <point x="179" y="341" type="curve" smooth="yes"/>
      <point x="221" y="341"/>
      <point x="244" y="320"/>
      <point x="261" y="280" type="curve" smooth="yes"/>
      <point x="263" y="275"/>
      <point x="271" y="270"/>
      <point x="281" y="270" type="curve" smooth="yes"/>
      <point x="287" y="270"/>
      <point x="293" y="274"/>
      <point x="293" y="279" type="curve" smooth="yes"/>
      <point x="293" y="311"/>
      <point x="284" y="348"/>
      <point x="273" y="362" type="curve"/>
      <point x="260" y="370"/>
      <point x="231" y="379"/>
      <point x="189" y="379" type="curve" smooth="yes"/>
      <point x="97" y="379"/>
      <point x="49" y="333"/>
      <point x="49" y="277" type="curve" smooth="yes"/>
      <point x="49" y="233"/>
      <point x="75" y="203"/>
      <point x="155" y="161" type="curve" smooth="yes"/>
      <point x="221" y="127"/>
      <point x="241" y="109"/>
      <point x="241" y="79" type="curve" smooth="yes"/>
      <point x="241" y="46"/>
      <point x="206" y="24"/>
      <point x="163" y="24" type="curve" smooth="yes"/>
      <point x="117" y="24"/>
      <point x="77" y="44"/>
      <point x="61" y="100" type="curve"/>
      <point x="59" y="108"/>
      <point x="52" y="111"/>
      <point x="46" y="111" type="curve" smooth="yes"/>
      <point x="37" y="111"/>
      <point x="30" y="108"/>
      <point x="30" y="100" type="curve"/>
      <point x="31" y="71"/>
      <point x="34" y="32"/>
      <point x="41" y="19" type="curve"/>
      <point x="67" y="-2"/>
      <point x="106" y="-14"/>
    </contour>
  </outline>
</glyph>
<glyph name="u" format="1">
  <advance width="523"/>
  <unicode hex="0075"/>
  <outline>
    <contour>
      <point x="373" y="-19" type="curve" smooth="yes"/>
      <point x="378" y="-19"/>
      <point x="388" y="-15"/>
      <point x="391" y="-14" type="curve"/>
      <point x="418" y="-3"/>
      <point x="451" y="13"/>
      <point x="498" y="18" type="curve" smooth="yes"/>
      <point x="507" y="18"/>
      <point x="512" y="23"/>
      <point x="512" y="35" type="curve" smooth="yes"/>
      <point x="512" y="49"/>
      <point x="504" y="52"/>
      <point x="495" y="52" type="curve" smooth="yes"/>
      <point x="485" y="52"/>
      <point x="461" y="49"/>
      <point x="451" y="49" type="curve" smooth="yes"/>
      <point x="440" y="49"/>
      <point x="432" y="62"/>
      <point x="432" y="102" type="curve" smooth="yes"/>
      <point x="432" y="291" type="line" smooth="yes"/>
      <point x="432" y="307"/>
      <point x="437" y="353"/>
      <point x="439" y="360" type="curve" smooth="yes"/>
      <point x="440" y="364"/>
      <point x="441" y="367"/>
      <point x="441" y="369" type="curve" smooth="yes"/>
      <point x="441" y="376"/>
      <point x="435" y="380"/>
      <point x="428" y="380" type="curve" smooth="yes"/>
      <point x="426" y="380"/>
      <point x="422" y="379"/>
      <point x="419" y="378" type="curve"/>
      <point x="385" y="369"/>
      <point x="361" y="364"/>
      <point x="306" y="364" type="curve" smooth="yes"/>
      <point x="295" y="364"/>
      <point x="286" y="358"/>
      <point x="286" y="345" type="curve" smooth="yes"/>
      <point x="286" y="330"/>
      <point x="295" y="327"/>
      <point x="310" y="327" type="curve" smooth="yes"/>
      <point x="338" y="327"/>
      <point x="375" y="315"/>
      <point x="375" y="274" type="curve" smooth="yes"/>
      <point x="375" y="145" type="line" smooth="yes"/>
      <point x="375" y="104"/>
      <point x="350" y="81"/>
      <point x="326" y="69" type="curve" smooth="yes"/>
      <point x="299" y="53"/>
      <point x="273" y="51"/>
      <point x="236" y="51" type="curve" smooth="yes"/>
      <point x="186" y="51"/>
      <point x="145" y="93"/>
      <point x="145" y="141" type="curve" smooth="yes"/>
      <point x="145" y="288" type="line" smooth="yes"/>
      <point x="145" y="318"/>
      <point x="147" y="334"/>
      <point x="151" y="365" type="curve" smooth="yes"/>
      <point x="152" y="376"/>
      <point x="147" y="379"/>
      <point x="140" y="379" type="curve" smooth="yes"/>
      <point x="138" y="379"/>
      <point x="137" y="379"/>
      <point x="133" y="378" type="curve" smooth="yes"/>
      <point x="100" y="369"/>
      <point x="84" y="366"/>
      <point x="45" y="362" type="curve" smooth="yes"/>
      <point x="36" y="361"/>
      <point x="30" y="356"/>
      <point x="30" y="343" type="curve" smooth="yes"/>
      <point x="30" y="331"/>
      <point x="36" y="327"/>
      <point x="46" y="323" type="curve"/>
      <point x="74" y="311"/>
      <point x="88" y="296"/>
      <point x="88" y="261" type="curve" smooth="yes"/>
      <point x="88" y="113" type="line" smooth="yes"/>
      <point x="88" y="30"/>
      <point x="137" y="-14"/>
      <point x="204" y="-14" type="curve" smooth="yes"/>
      <point x="267" y="-14"/>
      <point x="318" y="6"/>
      <point x="371" y="57" type="curve"/>
      <point x="371" y="55"/>
      <point x="371" y="53"/>
      <point x="371" y="51" type="curve" smooth="yes"/>
      <point x="371" y="34"/>
      <point x="366" y="2"/>
      <point x="366" y="-11" type="curve" smooth="yes"/>
      <point x="366" y="-16"/>
      <point x="368" y="-19"/>
    </contour>
  </outline>
</glyph>
<glyph name="w" format="1">
  <advance width="690"/>
  <unicode hex="0077"/>
  <outline>
    <contour>
      <point x="227" y="-23" type="curve" smooth="yes"/>
      <point x="231" y="-23"/>
      <point x="234" y="-20"/>
      <point x="237" y="-16" type="curve"/>
      <point x="344" y="218" type="line" smooth="yes"/>
      <point x="347" y="224"/>
      <point x="349" y="227"/>
      <point x="351" y="227" type="curve" smooth="yes"/>
      <point x="354" y="227"/>
      <point x="356" y="224"/>
      <point x="358" y="219" type="curve" smooth="yes"/>
      <point x="459" y="-16" type="line"/>
      <point x="461" y="-20"/>
      <point x="464" y="-23"/>
      <point x="467" y="-23" type="curve" smooth="yes"/>
      <point x="472" y="-23"/>
      <point x="475" y="-20"/>
      <point x="477" y="-16" type="curve"/>
      <point x="616" y="275" type="line" smooth="yes"/>
      <point x="631" y="304"/>
      <point x="653" y="328"/>
      <point x="673" y="335" type="curve"/>
      <point x="687" y="340"/>
      <point x="697" y="346"/>
      <point x="697" y="358" type="curve" smooth="yes"/>
      <point x="697" y="369"/>
      <point x="685" y="370"/>
      <point x="676" y="370" type="curve" smooth="yes"/>
      <point x="654" y="370"/>
      <point x="651" y="365"/>
      <point x="613" y="365" type="curve" smooth="yes"/>
      <point x="577" y="365"/>
      <point x="563" y="370"/>
      <point x="537" y="370" type="curve" smooth="yes"/>
      <point x="530" y="370"/>
      <point x="517" y="369"/>
      <point x="517" y="358" type="curve" smooth="yes"/>
      <point x="517" y="346"/>
      <point x="526" y="342"/>
      <point x="540" y="335" type="curve" smooth="yes"/>
      <point x="557" y="329"/>
      <point x="569" y="319"/>
      <point x="569" y="298" type="curve" smooth="yes"/>
      <point x="569" y="288"/>
      <point x="566" y="273"/>
      <point x="559" y="261" type="curve" smooth="yes"/>
      <point x="485" y="101" type="line" smooth="yes"/>
      <point x="482" y="94"/>
      <point x="479" y="91"/>
      <point x="476" y="91" type="curve" smooth="yes"/>
      <point x="474" y="91"/>
      <point x="471" y="96"/>
      <point x="467" y="102" type="curve" smooth="yes"/>
      <point x="401" y="264" type="line" smooth="yes"/>
      <point x="395" y="277"/>
      <point x="391" y="288"/>
      <point x="391" y="296" type="curve" smooth="yes"/>
      <point x="391" y="320"/>
      <point x="405" y="328"/>
      <point x="423" y="335" type="curve" smooth="yes"/>
      <point x="434" y="339"/>
      <point x="445" y="344"/>
      <point x="445" y="357" type="curve" smooth="yes"/>
      <point x="445" y="367"/>
      <point x="434" y="370"/>
      <point x="425" y="370" type="curve" smooth="yes"/>
      <point x="398" y="370"/>
      <point x="380" y="363"/>
      <point x="345" y="365" type="curve" smooth="yes"/>
      <point x="309" y="366"/>
      <point x="296" y="370"/>
      <point x="271" y="370" type="curve" smooth="yes"/>
      <point x="261" y="370"/>
      <point x="251" y="367"/>
      <point x="251" y="357" type="curve" smooth="yes"/>
      <point x="251" y="346"/>
      <point x="263" y="341"/>
      <point x="274" y="337" type="curve" smooth="yes"/>
      <point x="300" y="328"/>
      <point x="321" y="317"/>
      <point x="321" y="291" type="curve" smooth="yes"/>
      <point x="321" y="278"/>
      <point x="319" y="265"/>
      <point x="311" y="248" type="curve" smooth="yes"/>
      <point x="242" y="93" type="line" smooth="yes"/>
      <point x="240" y="89"/>
      <point x="239" y="89"/>
      <point x="237" y="89" type="curve" smooth="yes"/>
      <point x="234" y="89"/>
      <point x="233" y="90"/>
      <point x="232" y="93" type="curve" smooth="yes"/>
      <point x="157" y="272" type="line" smooth="yes"/>
      <point x="153" y="280"/>
      <point x="151" y="290"/>
      <point x="151" y="299" type="curve" smooth="yes"/>
      <point x="151" y="316"/>
      <point x="158" y="331"/>
      <point x="170" y="335" type="curve"/>
      <point x="181" y="340"/>
      <point x="193" y="345"/>
      <point x="193" y="358" type="curve" smooth="yes"/>
      <point x="193" y="369"/>
      <point x="179" y="370"/>
      <point x="173" y="370" type="curve" smooth="yes"/>
      <point x="142" y="370"/>
      <point x="126" y="365"/>
      <point x="97" y="365" type="curve" smooth="yes"/>
      <point x="68" y="365"/>
      <point x="56" y="370"/>
      <point x="27" y="370" type="curve" smooth="yes"/>
      <point x="20" y="370"/>
      <point x="7" y="369"/>
      <point x="7" y="358" type="curve" smooth="yes"/>
      <point x="7" y="346"/>
      <point x="18" y="342"/>
      <point x="32" y="337" type="curve"/>
      <point x="52" y="331"/>
      <point x="73" y="313"/>
      <point x="87" y="285" type="curve" smooth="yes"/>
      <point x="219" y="-16" type="line"/>
      <point x="220" y="-20"/>
      <point x="223" y="-23"/>
    </contour>
  </outline>
</glyph>
<glyph name="y" format="1">
  <advance width="444"/>
  <unicode hex="0079"/>
  <outline>
    <contour>
      <point x="37" y="-350" type="curve" smooth="yes"/>
      <point x="67" y="-350"/>
      <point x="91" y="-336"/>
      <point x="104" y="-309" type="curve"/>
      <point x="359" y="275" type="line"/>
      <point x="373" y="305"/>
      <point x="404" y="328"/>
      <point x="425" y="335" type="curve"/>
      <point x="442" y="341"/>
      <point x="449" y="346"/>
      <point x="449" y="358" type="curve" smooth="yes"/>
      <point x="449" y="369"/>
      <point x="438" y="370"/>
      <point x="429" y="370" type="curve" smooth="yes"/>
      <point x="408" y="370"/>
      <point x="404" y="365"/>
      <point x="368" y="365" type="curve" smooth="yes"/>
      <point x="331" y="365"/>
      <point x="308" y="370"/>
      <point x="292" y="370" type="curve" smooth="yes"/>
      <point x="283" y="370"/>
      <point x="272" y="368"/>
      <point x="272" y="358" type="curve" smooth="yes"/>
      <point x="272" y="346"/>
      <point x="279" y="342"/>
      <point x="296" y="334" type="curve" smooth="yes"/>
      <point x="309" y="329"/>
      <point x="315" y="322"/>
      <point x="315" y="302" type="curve" smooth="yes"/>
      <point x="315" y="293"/>
      <point x="312" y="279"/>
      <point x="308" y="269" type="curve"/>
      <point x="233" y="91" type="line" smooth="yes"/>
      <point x="233" y="90"/>
      <point x="231" y="89"/>
      <point x="231" y="89" type="curve" smooth="yes"/>
      <point x="229" y="89"/>
      <point x="228" y="90"/>
      <point x="227" y="92" type="curve" smooth="yes"/>
      <point x="149" y="275" type="line" smooth="yes"/>
      <point x="145" y="283"/>
      <point x="143" y="292"/>
      <point x="143" y="300" type="curve" smooth="yes"/>
      <point x="143" y="317"/>
      <point x="149" y="329"/>
      <point x="162" y="334" type="curve" smooth="yes"/>
      <point x="173" y="338"/>
      <point x="186" y="345"/>
      <point x="186" y="357" type="curve" smooth="yes"/>
      <point x="186" y="368"/>
      <point x="173" y="370"/>
      <point x="166" y="370" type="curve" smooth="yes"/>
      <point x="129" y="370"/>
      <point x="128" y="365"/>
      <point x="94" y="365" type="curve" smooth="yes"/>
      <point x="61" y="365"/>
      <point x="62" y="370"/>
      <point x="24" y="370" type="curve" smooth="yes"/>
      <point x="17" y="370"/>
      <point x="5" y="369"/>
      <point x="5" y="358" type="curve" smooth="yes"/>
      <point x="5" y="346"/>
      <point x="14" y="343"/>
      <point x="28" y="338" type="curve"/>
      <point x="49" y="331"/>
      <point x="69" y="314"/>
      <point x="85" y="280" type="curve" smooth="yes"/>
      <point x="192" y="38" type="line" smooth="yes"/>
      <point x="195" y="29"/>
      <point x="197" y="20"/>
      <point x="197" y="9" type="curve" smooth="yes"/>
      <point x="197" y="0"/>
      <point x="196" y="-8"/>
      <point x="193" y="-14" type="curve"/>
      <point x="163" y="-90"/>
      <point x="109" y="-216"/>
      <point x="82" y="-256" type="curve" smooth="yes"/>
      <point x="76" y="-264"/>
      <point x="68" y="-267"/>
      <point x="59" y="-267" type="curve" smooth="yes"/>
      <point x="48" y="-267"/>
      <point x="34" y="-261"/>
      <point x="18" y="-261" type="curve" smooth="yes"/>
      <point x="-5" y="-261"/>
      <point x="-17" y="-281"/>
      <point x="-17" y="-307" type="curve" smooth="yes"/>
      <point x="-17" y="-338"/>
      <point x="10" y="-350"/>
    </contour>
  </outline>
</glyph>
<glyph name="z" format="1">
  <advance width="379"/>
  <unicode hex="007A"/>
  <outline>
    <contour>
      <point x="41" y="-5" type="curve" smooth="yes"/>
      <point x="59" y="-5"/>
      <point x="95" y="0"/>
      <point x="124" y="0" type="curve" smooth="yes"/>
      <point x="231" y="0"/>
      <point x="301" y="-5"/>
      <point x="329" y="-5" type="curve" smooth="yes"/>
      <point x="337" y="-5"/>
      <point x="343" y="0"/>
      <point x="345" y="9" type="curve" smooth="yes"/>
      <point x="350" y="25"/>
      <point x="376" y="121"/>
      <point x="376" y="129" type="curve" smooth="yes"/>
      <point x="376" y="143"/>
      <point x="357" y="147"/>
      <point x="349" y="136" type="curve" smooth="yes"/>
      <point x="330" y="107"/>
      <point x="312" y="81"/>
      <point x="296" y="65" type="curve" smooth="yes"/>
      <point x="281" y="49"/>
      <point x="266" y="42"/>
      <point x="250" y="42" type="curve" smooth="yes"/>
      <point x="135" y="42" type="line" smooth="yes"/>
      <point x="126" y="42"/>
      <point x="119" y="48"/>
      <point x="126" y="57" type="curve" smooth="yes"/>
      <point x="314" y="303" type="line" smooth="yes"/>
      <point x="329" y="322"/>
      <point x="344" y="335"/>
      <point x="359" y="351" type="curve"/>
      <point x="364" y="357"/>
      <point x="358" y="369"/>
      <point x="349" y="369" type="curve" smooth="yes"/>
      <point x="291" y="368"/>
      <point x="235" y="366"/>
      <point x="166" y="366" type="curve" smooth="yes"/>
      <point x="157" y="366"/>
      <point x="144" y="365"/>
      <point x="129" y="365" type="curve" smooth="yes"/>
      <point x="111" y="365"/>
      <point x="92" y="366"/>
      <point x="86" y="371" type="curve" smooth="yes"/>
      <point x="80" y="376"/>
      <point x="74" y="380"/>
      <point x="71" y="380" type="curve" smooth="yes"/>
      <point x="67" y="380"/>
      <point x="55" y="372"/>
      <point x="55" y="362" type="curve" smooth="yes"/>
      <point x="55" y="337"/>
      <point x="41" y="282"/>
      <point x="35" y="264" type="curve" smooth="yes"/>
      <point x="29" y="248"/>
      <point x="52" y="242"/>
      <point x="64" y="254" type="curve" smooth="yes"/>
      <point x="79" y="269"/>
      <point x="93" y="294"/>
      <point x="107" y="308" type="curve" smooth="yes"/>
      <point x="115" y="316"/>
      <point x="132" y="327"/>
      <point x="151" y="326" type="curve" smooth="yes"/>
      <point x="246" y="323" type="line" smooth="yes"/>
      <point x="261" y="323"/>
      <point x="258" y="317"/>
      <point x="255" y="313" type="curve"/>
      <point x="190" y="228"/>
      <point x="130" y="151"/>
      <point x="66" y="70" type="curve" smooth="yes"/>
      <point x="50" y="51"/>
      <point x="24" y="20"/>
      <point x="24" y="16" type="curve" smooth="yes"/>
      <point x="24" y="9"/>
      <point x="34" y="-5"/>
    </contour>
  </outline>
</glyph>
<glyph name="braceleft" format="1">
  <advance width="389"/>
  <unicode hex="007B"/>
  <outline>
    <contour>
      <point x="342" y="-151" type="curve" smooth="yes"/>
      <point x="357" y="-152"/>
      <point x="367" y="-143"/>
      <point x="367" y="-131" type="curve" smooth="yes"/>
      <point x="367" y="-117"/>
      <point x="349" y="-114"/>
      <point x="331" y="-112" type="curve" smooth="yes"/>
      <point x="258" y="-106"/>
      <point x="215" y="-90"/>
      <point x="215" y="-19" type="curve" smooth="yes"/>
      <point x="215" y="48"/>
      <point x="229" y="94"/>
      <point x="229" y="151" type="curve" smooth="yes"/>
      <point x="229" y="218"/>
      <point x="173" y="268"/>
      <point x="120" y="279" type="curve"/>
      <point x="117" y="280"/>
      <point x="114" y="281"/>
      <point x="118" y="283" type="curve"/>
      <point x="176" y="300"/>
      <point x="229" y="348"/>
      <point x="229" y="411" type="curve" smooth="yes"/>
      <point x="229" y="468"/>
      <point x="215" y="514"/>
      <point x="215" y="581" type="curve" smooth="yes"/>
      <point x="215" y="652"/>
      <point x="260" y="667"/>
      <point x="333" y="674" type="curve" smooth="yes"/>
      <point x="351" y="676"/>
      <point x="369" y="681"/>
      <point x="369" y="695" type="curve" smooth="yes"/>
      <point x="369" y="706"/>
      <point x="359" y="715"/>
      <point x="344" y="715" type="curve" smooth="yes"/>
      <point x="249" y="711"/>
      <point x="146" y="677"/>
      <point x="146" y="582" type="curve" smooth="yes"/>
      <point x="146" y="512"/>
      <point x="160" y="466"/>
      <point x="160" y="404" type="curve" smooth="yes"/>
      <point x="160" y="346"/>
      <point x="128" y="320"/>
      <point x="79" y="307" type="curve" smooth="yes"/>
      <point x="58" y="302"/>
      <point x="51" y="293"/>
      <point x="51" y="282" type="curve" smooth="yes"/>
      <point x="51" y="270"/>
      <point x="61" y="262"/>
      <point x="78" y="258" type="curve" smooth="yes"/>
      <point x="121" y="248"/>
      <point x="160" y="216"/>
      <point x="160" y="158" type="curve" smooth="yes"/>
      <point x="160" y="96"/>
      <point x="146" y="50"/>
      <point x="146" y="-20" type="curve" smooth="yes"/>
      <point x="146" y="-115"/>
      <point x="247" y="-147"/>
    </contour>
  </outline>
</glyph>
<glyph name="asciitilde" format="1">
  <advance width="522"/>
  <unicode hex="007E"/>
  <outline>
    <contour>
      <point x="352" y="235" type="curve" smooth="yes"/>
      <point x="403" y="235"/>
      <point x="470" y="296"/>
      <point x="470" y="337" type="curve" smooth="yes"/>
      <point x="470" y="353"/>
      <point x="454" y="362"/>
      <point x="449" y="362" type="curve" smooth="yes"/>
      <point x="443" y="362"/>
      <point x="399" y="299"/>
      <point x="352" y="299" type="curve" smooth="yes"/>
      <point x="323" y="299"/>
      <point x="297" y="314"/>
      <point x="270" y="330" type="curve" smooth="yes"/>
      <point x="243" y="345"/>
      <point x="214" y="361"/>
      <point x="178" y="361" type="curve" smooth="yes"/>
      <point x="105" y="361"/>
      <point x="52" y="286"/>
      <point x="52" y="259" type="curve" smooth="yes"/>
      <point x="52" y="250"/>
      <point x="64" y="240"/>
      <point x="72" y="240" type="curve" smooth="yes"/>
      <point x="77" y="240"/>
      <point x="115" y="295"/>
      <point x="167" y="295" type="curve" smooth="yes"/>
      <point x="197" y="295"/>
      <point x="225" y="281"/>
      <point x="254" y="266" type="curve" smooth="yes"/>
      <point x="284" y="251"/>
      <point x="315" y="235"/>
    </contour>
  </outline>
</glyph>
